<?xml version="1.0" encoding="UTF-8"?>
<svg xmlns="http://www.w3.org/2000/svg" xmlns:xlink="http://www.w3.org/1999/xlink" width="2185" height="2183" viewBox="0 0 2185 2183">
<path fill-rule="nonzero" fill="rgb(93.359375%, 35.693359%, 62.693787%)" fill-opacity="1" d="M 2184.070312 2180.695312 C 2183.839844 2181.402344 2183.53125 2181.992188 2183.128906 2182.480469 L 0.535156 2182.480469 C -0.351562 2179.359375 0.3125 2176.089844 0.308594 2172.917969 C 0.261719 1453.039062 0.261719 733.160156 0.28125 13.28125 C 0.28125 -1.359375 -1.183594 0.21875 13.390625 0.21875 C 733.269531 0.199219 1453.148438 0.199219 2173.03125 0.261719 C 2176.699219 0.261719 2180.519531 -0.640625 2184.070312 1.050781 L 2184.070312 2180.695312 "/>
<path fill-rule="nonzero" fill="rgb(24.705505%, 7.446289%, 27.43988%)" fill-opacity="1" d="M 1606.488281 1129.988281 C 1625.371094 1131.859375 1644.261719 1133.628906 1663.128906 1135.640625 C 1672.789062 1136.671875 1683.871094 1137.421875 1685.949219 1149.25 C 1687.929688 1160.460938 1679.070312 1167.089844 1670.320312 1171.269531 C 1652.949219 1179.589844 1635.101562 1186.945312 1617.261719 1194.265625 C 1607.351562 1198.335938 1595.320312 1202.359375 1595.261719 1213.921875 C 1595.199219 1225.222656 1609.128906 1221.121094 1616.210938 1225.230469 C 1623.738281 1229.601562 1632.71875 1231.683594 1639.828125 1236.5625 C 1655.910156 1247.589844 1656.039062 1266.738281 1637.941406 1270.566406 C 1586.398438 1281.460938 1556.511719 1323.285156 1515.78125 1349.289062 C 1512.828125 1351.175781 1509.621094 1352.761719 1506.941406 1354.980469 C 1490.160156 1368.855469 1458.78125 1371.679688 1455.308594 1391.382812 C 1452.101562 1409.546875 1468.820312 1431.417969 1477.359375 1451.398438 C 1503.640625 1512.863281 1520.820312 1576.769531 1528.410156 1650.554688 C 1541.070312 1626.292969 1550.679688 1606.761719 1572.898438 1633.632812 C 1579.039062 1641.066406 1587.289062 1630.789062 1590.601562 1623.859375 C 1606.339844 1590.863281 1625.738281 1559.390625 1589.710938 1524.5 C 1569.578125 1505.007812 1579.21875 1481.65625 1607.011719 1468.132812 C 1702.050781 1421.878906 1807.691406 1485.367188 1816.851562 1593.742188 C 1822.121094 1655.953125 1803.589844 1709.785156 1762.070312 1755.824219 C 1702.398438 1821.984375 1627.921875 1868.398438 1550.988281 1911.027344 C 1525.890625 1924.941406 1506.011719 1943.152344 1486.710938 1964.054688 C 1429.351562 2026.199219 1365.160156 2074.34375 1272.789062 2066.855469 C 1221.519531 2062.691406 1171.078125 2061.394531 1119.558594 2050.542969 C 1062.050781 2038.429688 999.347656 2036.140625 940.410156 2056.84375 C 915.011719 2065.773438 888.726562 2066.429688 862.445312 2066.703125 C 822.085938 2067.113281 781.675781 2068.25 741.476562 2062.589844 C 712.203125 2058.472656 691.507812 2042.734375 670.570312 2021.867188 C 642.90625 1994.285156 621.902344 1960.621094 589.65625 1937.054688 C 575.777344 1926.917969 550.996094 1913.5625 580.433594 1890.773438 C 588.414062 1884.59375 577.722656 1876.835938 572.871094 1871.382812 C 554.269531 1850.464844 544.835938 1824.898438 536.421875 1799.054688 C 532.375 1786.613281 531.453125 1771.800781 552.160156 1778.71875 C 562.976562 1782.332031 562.617188 1777.394531 561.679688 1770.9375 C 554.472656 1721.246094 552.425781 1671.375 556.316406 1621.328125 C 557.167969 1610.292969 548.503906 1609.746094 542.214844 1605.453125 C 526.886719 1595.007812 498.507812 1593.03125 514.351562 1561.160156 C 517.960938 1553.902344 504.273438 1548.417969 497.566406 1543.296875 C 463.074219 1516.953125 433.101562 1486.703125 411.332031 1448.683594 C 372.175781 1380.300781 379.597656 1302.894531 431.050781 1243.816406 C 442.464844 1230.714844 456.777344 1222.964844 472.527344 1216.984375 C 476.496094 1215.480469 481.609375 1214.78125 482.183594 1209.5 C 482.921875 1202.753906 477.105469 1200.605469 472.441406 1198.890625 C 451.894531 1191.339844 430.007812 1187.097656 411.261719 1175.160156 C 402.621094 1169.640625 391.351562 1164.238281 392.960938 1151.800781 C 394.777344 1137.808594 408.445312 1139.25 418.082031 1137.539062 C 438.683594 1133.871094 459.546875 1131.679688 485.6875 1128.160156 C 464.746094 1107.820312 440.507812 1098.21875 425.1875 1078.570312 C 421.421875 1073.730469 416.796875 1069.550781 413.21875 1064.601562 C 404.71875 1052.839844 388.15625 1042.539062 394.039062 1026.648438 C 400.425781 1009.421875 419.671875 1015.371094 433.777344 1014.550781 C 448.152344 1013.730469 457.039062 1014.410156 448.96875 994.46875 C 440.800781 974.300781 449.941406 952.238281 456.152344 932.941406 C 477.414062 866.890625 475.09375 803.460938 458.453125 735.449219 C 429.378906 616.679688 426.617188 495.699219 462.941406 376.519531 C 471.394531 348.769531 482.394531 322.160156 496.355469 296.578125 C 506.464844 278.070312 520.125 273.628906 539.988281 277.71875 C 662.949219 303.050781 765.558594 363.589844 848.140625 457.289062 C 865.277344 476.738281 879.777344 483.089844 905.988281 476.820312 C 997.492188 454.960938 1089.75 448.519531 1181.511719 477.101562 C 1195.070312 481.328125 1200.339844 471.808594 1207.03125 463.808594 C 1290.421875 364.289062 1395.101562 299.441406 1521.839844 270.148438 C 1558.210938 261.738281 1562.410156 262.78125 1579.878906 296.289062 C 1616.25 366.019531 1632.898438 440.898438 1636.421875 518.941406 C 1640.808594 616.398438 1625.570312 711.371094 1598.03125 804.539062 C 1594.390625 816.878906 1594.359375 827.839844 1597.609375 840.339844 C 1611.28125 892.859375 1628.910156 944.671875 1630.75 999.601562 C 1631.261719 1014.910156 1640.960938 1012.738281 1650.769531 1012.421875 C 1664.5 1011.960938 1681.941406 1006.359375 1689.441406 1020.890625 C 1697.46875 1036.480469 1682.148438 1047.859375 1673.570312 1059.511719 C 1654.800781 1085.019531 1630.710938 1105.078125 1604.480469 1122.921875 C 1605.140625 1125.28125 1605.820312 1127.628906 1606.488281 1129.988281 "/>
<path fill-rule="nonzero" fill="rgb(87.5%, 59.179688%, 68.943787%)" fill-opacity="1" d="M 509.601562 1176.671875 C 494.523438 1172.421875 479.445312 1168.160156 462.230469 1163.308594 C 471.566406 1151.980469 484.125 1155.328125 493.988281 1152.589844 C 506.039062 1149.25 517.199219 1144.589844 527.613281 1138.179688 C 534.207031 1134.128906 543.238281 1128.890625 542.460938 1121.140625 C 541.558594 1112.210938 530.828125 1111.640625 523.285156 1110.488281 C 482.308594 1104.230469 461.25 1072.449219 435.964844 1044.351562 C 460.664062 1053.949219 476.816406 1026.019531 500.808594 1032.609375 C 509.996094 1035.140625 510.375 1022.449219 504.09375 1018.109375 C 469.164062 993.960938 481.921875 961.648438 487.671875 930.351562 C 488.464844 926.039062 488.363281 921.371094 490.039062 917.449219 C 515.695312 857.429688 504.261719 798.980469 489.070312 738.121094 C 457.78125 612.761719 454.230469 486.230469 498.484375 362.550781 C 522.761719 294.699219 512.921875 299.160156 585.355469 320.289062 C 682.902344 348.75 762.972656 405.621094 830.761719 480.558594 C 845.996094 497.398438 854.640625 511.558594 844.515625 537.871094 C 831.226562 572.390625 840.476562 608.621094 861.167969 640.421875 C 870.453125 648.808594 876.734375 667.320312 890.164062 662.390625 C 903.738281 657.398438 892.691406 640.738281 893.101562 629.5 C 894.890625 579.941406 914.488281 538.140625 949.03125 504.328125 C 966.621094 487.109375 992.339844 488.5 1015.78125 490.820312 C 1025.378906 491.769531 1022.640625 501.730469 1022.390625 508.128906 C 1021.640625 526.601562 1023.441406 544.601562 1029.730469 562.050781 C 1038.210938 592.730469 1056.359375 617.519531 1077.519531 640.480469 C 1083.800781 649.941406 1091.449219 652.878906 1103.738281 652.199219 C 1128.949219 650.789062 1139.539062 660.328125 1142.941406 681.890625 C 1018.210938 737.410156 957.886719 846.128906 909.96875 964.730469 C 901.621094 985.398438 907.148438 1008.128906 905.390625 1029.839844 C 904.589844 1039.820312 909.929688 1053.839844 892.714844 1056.441406 C 884.089844 1045.820312 887.109375 1033.070312 886.46875 1021.089844 C 883.554688 966.449219 838.980469 913.96875 792.273438 910.511719 C 724.726562 905.511719 675.335938 940.46875 662.3125 1002.488281 C 649.902344 1061.589844 681.113281 1123.070312 736.671875 1138.980469 C 773.96875 1149.671875 813.035156 1151.109375 844.71875 1119.269531 C 850.742188 1113.21875 857.820312 1100.859375 869.878906 1112.460938 C 853.84375 1188.941406 852.785156 1265.617188 873.171875 1341.101562 C 895.5625 1423.984375 901.980469 1427.113281 982.003906 1427.347656 C 1016.148438 1427.445312 1050.300781 1427.234375 1084.449219 1427.441406 C 1095.75 1427.507812 1107.320312 1426.375 1117.878906 1432.128906 C 1120.839844 1434.105469 1121.628906 1436.730469 1120.25 1440.007812 C 955.566406 1453.539062 796.722656 1430.929688 645.457031 1362.585938 C 623.125 1352.492188 601.695312 1340.386719 582.746094 1324.46875 C 579.929688 1322.449219 575.03125 1320.328125 575.445312 1317.523438 C 580.042969 1286.414062 553.59375 1281.867188 535.289062 1272.160156 C 518.957031 1263.503906 505.675781 1258.171875 525.644531 1239.460938 C 536.726562 1229.074219 525.492188 1222.632812 518.242188 1217.214844 C 511.152344 1211.917969 508.050781 1206.910156 517.289062 1201.941406 C 523.289062 1198.71875 535.429688 1202.78125 532.585938 1190.085938 C 530.28125 1179.78125 519.761719 1180.210938 511.484375 1178.421875 C 510.765625 1178.269531 510.226562 1177.28125 509.601562 1176.671875 "/>
<path fill-rule="nonzero" fill="rgb(97.65625%, 98.046875%, 90.234375%)" fill-opacity="1" d="M 893.28125 1055.328125 C 903.800781 1045.289062 900.203125 1032.03125 899.046875 1020.699219 C 895.75 988.378906 902.332031 958.789062 915.382812 929.269531 C 955.636719 838.25 1012.058594 759.921875 1090.441406 697.738281 C 1105.890625 685.488281 1122.671875 681.160156 1141.539062 681.519531 C 1161.359375 715.371094 1165.089844 751.429688 1155.578125 789 C 1152.621094 800.648438 1148.011719 811.898438 1167.839844 808.839844 C 1196.199219 787.089844 1216.960938 758.871094 1235.929688 729.109375 C 1251.589844 706.539062 1257.03125 705.761719 1274.648438 724.910156 C 1315.421875 769.238281 1336.769531 823.699219 1354.320312 879.941406 C 1359.089844 895.238281 1357.078125 908.320312 1336.730469 909.640625 C 1332.339844 909.828125 1328.011719 909.171875 1323.671875 908.449219 C 1260.589844 897.949219 1212.75 921.179688 1191.480469 972.589844 C 1166.851562 1032.109375 1182.558594 1087.949219 1234.609375 1125.980469 C 1238.859375 1129.089844 1243.121094 1132.191406 1247.210938 1135.519531 C 1277.148438 1155.148438 1309.539062 1153.339844 1340.601562 1141.898438 C 1361.789062 1134.089844 1378.730469 1135.53125 1397.75 1146.558594 C 1430.199219 1165.359375 1467.199219 1170.140625 1503.359375 1177.328125 C 1539.160156 1184.457031 1541.128906 1188.65625 1528.089844 1222.8125 C 1522.191406 1238.257812 1520.828125 1255.554688 1509.460938 1268.800781 C 1476.21875 1296.535156 1451.199219 1332.535156 1412.800781 1355.757812 C 1358.839844 1388.378906 1301.839844 1410.628906 1240.320312 1421.5625 C 1200.601562 1428.625 1161.289062 1440.503906 1120.121094 1435.765625 C 1068.359375 1435.546875 1016.558594 1436.355469 964.839844 1434.867188 C 884.527344 1432.539062 892.695312 1426.488281 868.832031 1356.496094 C 845.507812 1288.101562 846.234375 1215.578125 855.398438 1143.5 C 857.050781 1130.5 865.652344 1121.671875 867.285156 1109.679688 C 868.429688 1087.96875 878.75 1070.648438 893.28125 1055.328125 "/>
<path fill-rule="nonzero" fill="rgb(98.826599%, 98.4375%, 91.40625%)" fill-opacity="1" d="M 1393.769531 1778.824219 C 1402.738281 1739.527344 1413.351562 1700.464844 1413.148438 1659.714844 C 1413.109375 1651.570312 1416.039062 1639.296875 1403.539062 1638.90625 C 1392.761719 1638.574219 1395.128906 1650.191406 1394.25 1657.421875 C 1386.980469 1717.484375 1374.089844 1775.960938 1346.558594 1830.429688 C 1336.628906 1847.890625 1319.691406 1849.96875 1301.871094 1853.160156 C 1266.980469 1859.421875 1232.191406 1851.359375 1197.210938 1855.511719 C 1158.628906 1860.09375 1129.921875 1878.292969 1107.160156 1908.101562 C 1098.109375 1919.953125 1089.160156 1931.808594 1078.460938 1942.28125 C 1047.390625 1972.695312 1016.609375 1970.152344 994.617188 1932.269531 C 976.179688 1900.511719 951.632812 1877.519531 917.839844 1863.914062 C 902.09375 1858.335938 886.105469 1854.171875 869.25 1853.664062 C 811.777344 1851.929688 769.589844 1813.921875 754.933594 1757.363281 C 731.003906 1665.035156 798.132812 1583.5 876.835938 1553.660156 C 943.027344 1528.558594 1010.980469 1518.042969 1082.210938 1516.425781 C 1197.75 1513.804688 1309.441406 1488.894531 1413.609375 1436.238281 C 1426.398438 1428.355469 1434.710938 1433.632812 1440.730469 1445.539062 C 1461.351562 1485.878906 1469.5 1530.460938 1484.109375 1572.847656 C 1493.289062 1621.476562 1502.421875 1669.851562 1491.890625 1719.820312 C 1481.628906 1768.507812 1446.78125 1794.273438 1407.03125 1816.226562 C 1401.578125 1819.230469 1394.980469 1819.539062 1389.640625 1815.289062 C 1383.761719 1810.613281 1384.691406 1804.089844 1387.839844 1798.671875 C 1391.5 1792.382812 1390.269531 1784.953125 1393.769531 1778.824219 "/>
<path fill-rule="nonzero" fill="rgb(87.5%, 59.179688%, 68.943787%)" fill-opacity="1" d="M 1335.378906 904.300781 C 1344.890625 902 1353.578125 901.089844 1348.96875 886.121094 C 1331.488281 829.308594 1309.421875 775.320312 1270.199219 729.21875 C 1256.691406 713.339844 1247.378906 717.101562 1235.929688 729.121094 C 1254.851562 692.011719 1267.101562 653.519531 1263.429688 610.988281 C 1260.488281 576.828125 1251.519531 545.171875 1226.128906 521 C 1213.441406 508.921875 1215.210938 500.511719 1225.441406 488.171875 C 1305.300781 391.96875 1404.871094 327.628906 1527.078125 298.878906 C 1542.988281 295.140625 1552.300781 301.148438 1558.640625 314.671875 C 1594.679688 391.480469 1609.089844 472.769531 1607.820312 557.058594 C 1606.53125 642.53125 1592.871094 726.148438 1566.480469 807.5 C 1562.371094 820.160156 1563.96875 831.320312 1567.449219 843.238281 C 1578.75 881.871094 1588.261719 920.910156 1596.75 960.28125 C 1601.628906 982.910156 1601.429688 1001.371094 1580.539062 1015.429688 C 1577.308594 1017.601562 1573.351562 1020.871094 1575.320312 1027.210938 C 1585.648438 1034.230469 1609.851562 1020.671875 1609.199219 1048.929688 C 1609.109375 1052.890625 1629.691406 1048.929688 1643.28125 1048.660156 C 1620.960938 1081.148438 1597.078125 1107.550781 1557.390625 1113.511719 C 1552.429688 1114.25 1545.878906 1113.148438 1544.339844 1119.710938 C 1542.671875 1126.871094 1548.578125 1131.078125 1553.351562 1134.449219 C 1573.699219 1148.828125 1597.070312 1155.289062 1622.398438 1159.921875 C 1596.921875 1169.019531 1570.878906 1174.960938 1547.589844 1187.925781 C 1541.238281 1204.734375 1537.390625 1221.457031 1539.578125 1240.078125 C 1542.328125 1263.484375 1527.671875 1273.628906 1504.660156 1266.597656 C 1517.179688 1247.320312 1516.878906 1223.140625 1529.671875 1203.527344 C 1535.691406 1194.296875 1528.050781 1188.910156 1517.011719 1186.882812 C 1486.171875 1181.230469 1454.671875 1178.300781 1425.128906 1166.648438 C 1418.640625 1164.089844 1411.28125 1162.808594 1405.75 1158.898438 C 1382.859375 1142.769531 1361.421875 1140.058594 1333.398438 1151.050781 C 1303.550781 1162.761719 1270.03125 1162.949219 1242.019531 1139.691406 C 1251.160156 1132.308594 1260.308594 1137.589844 1269.378906 1139.78125 C 1316.441406 1151.109375 1356.320312 1138.320312 1386.480469 1101.128906 C 1418.878906 1061.179688 1421.128906 1016.519531 1398.429688 971.140625 C 1387.378906 949.050781 1371.289062 930.621094 1348.648438 918.878906 C 1342.589844 915.738281 1335.699219 912.871094 1335.378906 904.300781 "/>
<path fill-rule="nonzero" fill="rgb(86.71875%, 59.179688%, 68.554688%)" fill-opacity="1" d="M 1419.609375 1439.890625 C 1347.148438 1480.726562 1267.628906 1499.3125 1186.839844 1514.363281 C 1111.828125 1528.339844 1034.421875 1516.902344 960.066406 1535.5 C 898.050781 1551.019531 836.546875 1568.347656 793.546875 1621.566406 C 736.496094 1692.160156 748.886719 1775.222656 810.785156 1832.328125 C 825.726562 1846.113281 846.257812 1850.679688 867.136719 1850.886719 C 885.402344 1851.070312 903.699219 1851.84375 920.183594 1861.367188 C 914.957031 1865.628906 909.519531 1864.902344 904 1862.035156 C 855.757812 1854.207031 808.035156 1853.363281 762.320312 1874.074219 C 750.574219 1879.398438 747.539062 1872.355469 742.953125 1864.078125 C 712.878906 1809.699219 697.320312 1750.808594 687.964844 1689.949219 C 686.234375 1678.71875 685.171875 1667.386719 683.664062 1656.113281 C 682.765625 1649.410156 683.675781 1638.898438 675.113281 1639.503906 C 665.453125 1640.1875 666.636719 1651 666.515625 1658.699219 C 665.941406 1695.71875 671.78125 1731.96875 680.933594 1767.652344 C 685.914062 1787.089844 692.601562 1806.078125 698.523438 1825.273438 C 702.429688 1833.636719 704.226562 1842.605469 696.773438 1849.300781 C 688.332031 1856.890625 678.417969 1852.761719 669.628906 1848.890625 C 651.363281 1840.851562 638.1875 1826.707031 627.804688 1810.277344 C 593.914062 1756.6875 581.675781 1697.988281 587.554688 1635.144531 C 590.535156 1603.21875 593.996094 1571.410156 603.386719 1540.578125 C 614.800781 1500.015625 631.09375 1461.46875 651.199219 1424.484375 C 658.816406 1409.722656 668.46875 1407.566406 683.15625 1416.46875 C 744.078125 1453.382812 807.753906 1482.992188 878.21875 1498.628906 C 944.152344 1513.253906 1010.109375 1514.109375 1076.640625 1510.082031 C 1116.859375 1507.652344 1156.96875 1502.804688 1196.570312 1495.613281 C 1259.53125 1484.1875 1320.628906 1465.644531 1380.339844 1442.613281 C 1393.171875 1437.660156 1405.699219 1428.949219 1419.609375 1439.890625 "/>
<path fill-rule="nonzero" fill="rgb(49.021912%, 40.380859%, 49.021912%)" fill-opacity="1" d="M 1167.839844 808.828125 C 1146.230469 817.648438 1145.398438 805.878906 1150.5 790.460938 C 1162.96875 752.75 1155.421875 716.941406 1141.539062 681.53125 C 1138.371094 658.441406 1118.03125 661.378906 1103.199219 657.398438 C 1092.199219 654.449219 1079.980469 655.539062 1077.519531 640.480469 C 1084.460938 640.519531 1088.519531 652.328125 1095.789062 646.671875 C 1101.671875 642.101562 1099.890625 633.03125 1097.949219 626.921875 C 1093.140625 611.691406 1100.730469 587.410156 1069.851562 589.679688 C 1060.628906 590.351562 1057.691406 576.238281 1054.769531 567.039062 C 1033.03125 498.589844 1040.988281 490.070312 1108.738281 491.890625 C 1229.261719 495.121094 1258.410156 612.878906 1223.761719 690.519531 C 1217.800781 703.878906 1215.078125 719.300781 1203.601562 729.839844 C 1200.140625 733.03125 1197.429688 740.140625 1191.210938 736.03125 C 1188.070312 733.949219 1184.621094 728.308594 1185.289062 725.109375 C 1190.648438 699.421875 1163.398438 700.25 1154.558594 685.378906 C 1163.101562 723.628906 1170.929688 760.820312 1157.988281 798.898438 C 1155.808594 805.339844 1163 806.980469 1167.839844 808.828125 "/>
<path fill-rule="nonzero" fill="rgb(78.514099%, 41.967773%, 52.539062%)" fill-opacity="1" d="M 1419.609375 1439.890625 C 1390.261719 1438.585938 1367.238281 1457.347656 1340.789062 1465.4375 C 1261.75 1489.605469 1182.371094 1508.714844 1099.429688 1515.242188 C 1035.5 1520.277344 971.515625 1524.164062 908.894531 1512.863281 C 850.0625 1502.246094 790.921875 1487.902344 738.402344 1456.335938 C 718.207031 1444.191406 698.097656 1431.78125 678.914062 1418.140625 C 666.03125 1408.992188 660.042969 1420.980469 651.191406 1424.488281 C 652.019531 1404.207031 661.507812 1402.089844 679.117188 1408.675781 C 906.105469 1493.523438 1135.011719 1490.484375 1365.128906 1422.398438 C 1371.820312 1420.417969 1378.089844 1417.078125 1384.648438 1414.628906 C 1424.261719 1399.796875 1428.238281 1402.015625 1440.730469 1445.550781 C 1434.210938 1441.742188 1429.261719 1432.023438 1419.609375 1439.890625 "/>
<path fill-rule="nonzero" fill="rgb(87.889099%, 58.789062%, 68.164062%)" fill-opacity="1" d="M 856.597656 1972.269531 C 855.210938 1979.046875 852.960938 1985.777344 852.582031 1992.609375 C 850.65625 2027.503906 831.945312 2039.929688 797.34375 2029.550781 C 789.925781 2027.324219 787.722656 2023.078125 787.484375 2016.371094 C 787.234375 2009.375 787.332031 2002.316406 786.449219 1995.394531 C 785.457031 1987.644531 784.667969 1977.210938 775.6875 1976.390625 C 765.304688 1975.445312 766.386719 1986.816406 764 1993.816406 C 763.71875 1994.636719 763.800781 1995.628906 763.398438 1996.363281 C 757.691406 2006.660156 772.082031 2027.792969 746.976562 2027.539062 C 721.1875 2027.285156 701.128906 2010.566406 699.511719 1987.585938 C 697.78125 1962.984375 703.710938 1941.453125 722.835938 1923.539062 C 766.160156 1882.953125 861 1867.320312 914.976562 1893.734375 C 922.558594 1897.4375 928.605469 1904.289062 935.363281 1909.6875 C 951.542969 1928.027344 952.269531 1945.910156 936.207031 1965.417969 C 927.425781 1976.082031 924.546875 1990.523438 918.472656 2003.011719 C 914.65625 2010.851562 910.144531 2018.382812 902.296875 2022.953125 C 887.964844 2031.3125 880.988281 2027.359375 880.691406 2009.457031 C 880.507812 1998.808594 878.007812 1988.894531 875.421875 1978.839844 C 872.4375 1967.257812 866.214844 1964.894531 856.597656 1972.269531 "/>
<path fill-rule="nonzero" fill="rgb(86.71875%, 56.443787%, 66.601562%)" fill-opacity="1" d="M 1161.789062 1892.597656 C 1219.921875 1861.078125 1315.320312 1881.445312 1362.570312 1935.46875 C 1366.359375 1941.34375 1369.179688 1947.445312 1371.03125 1954.410156 C 1374.730469 1968.296875 1379.671875 1982.40625 1364.460938 1991.988281 C 1350.691406 2000.671875 1338.058594 1992.425781 1328.929688 1983.53125 C 1314.25 1969.246094 1303.550781 1955.257812 1284.570312 1980.183594 C 1275.808594 1991.683594 1237.820312 1984.949219 1227.488281 1972.460938 C 1218.191406 1961.222656 1211.179688 1962.082031 1202.03125 1971.746094 C 1190.601562 1983.8125 1178.210938 1981.070312 1167.101562 1971.460938 C 1156.53125 1962.332031 1148.160156 1950.933594 1138.058594 1941.210938 C 1131.238281 1934.640625 1133.808594 1927.359375 1137.390625 1919.589844 C 1142.789062 1907.855469 1153.089844 1901.0625 1161.789062 1892.597656 "/>
<path fill-rule="nonzero" fill="rgb(76.5625%, 36.863708%, 48.631287%)" fill-opacity="1" d="M 1646.898438 1677.554688 C 1641.410156 1671.144531 1637 1663.121094 1630.230469 1658.636719 C 1609.789062 1645.070312 1612.089844 1630.417969 1625.820312 1614.082031 C 1642.441406 1586.0625 1667.898438 1591.679688 1691.078125 1599.957031 C 1712.261719 1607.507812 1733.871094 1615.921875 1751.671875 1630.859375 C 1789.230469 1655.777344 1790.539062 1659.039062 1768.160156 1698.007812 C 1747.488281 1733.988281 1720.910156 1764.859375 1680.179688 1789.351562 C 1680.601562 1761.503906 1675.601562 1737.566406 1667.601562 1714.320312 C 1663.070312 1700.738281 1651.5 1691.105469 1646.898438 1677.554688 "/>
<path fill-rule="nonzero" fill="rgb(70.506287%, 29.026794%, 43.530273%)" fill-opacity="1" d="M 424.863281 1403.273438 C 408.066406 1366.644531 409.667969 1330.21875 426.585938 1294.214844 C 433.492188 1279.523438 442.257812 1279.449219 459.726562 1281.632812 C 515.113281 1288.539062 537.503906 1341.820312 582.640625 1361.492188 C 588.617188 1366.210938 597.449219 1369.554688 594.660156 1379.472656 C 592.386719 1387.550781 584.316406 1388.25 577.53125 1389.324219 C 566.808594 1391.023438 557.410156 1395.0625 549.402344 1402.40625 C 523.1875 1426.429688 491.320312 1428.710938 458.1875 1425.917969 C 442.882812 1424.625 432.453125 1415.988281 424.863281 1403.273438 "/>
<path fill-rule="nonzero" fill="rgb(78.125%, 42.358398%, 52.929688%)" fill-opacity="1" d="M 1393.769531 1778.824219 C 1398.609375 1790.578125 1380.519531 1806.171875 1392.941406 1812.027344 C 1404.558594 1817.507812 1417.800781 1803.023438 1429.039062 1795.582031 C 1484.269531 1759.015625 1499.78125 1705.714844 1491.789062 1642.855469 C 1488.828125 1619.5625 1486.640625 1596.167969 1484.101562 1572.839844 C 1506.25 1635.332031 1501.609375 1698.542969 1489.179688 1761.953125 C 1478 1808.117188 1464.589844 1853.765625 1460.230469 1901.414062 C 1458.691406 1918.246094 1449.660156 1932.722656 1438.5 1945.308594 C 1415.421875 1971.351562 1409.230469 1970.5 1394.878906 1940.097656 C 1388.269531 1920.808594 1371.929688 1910.171875 1357.109375 1898.40625 C 1350.710938 1893.328125 1343.921875 1889.78125 1348.429688 1879.8125 C 1363.660156 1846.199219 1378.671875 1812.5 1393.769531 1778.824219 "/>
<path fill-rule="nonzero" fill="rgb(74.021912%, 35.276794%, 47.851562%)" fill-opacity="1" d="M 1630.289062 1813.867188 C 1607.78125 1851.988281 1569.359375 1869.460938 1531.671875 1886.1875 C 1517.511719 1892.46875 1516.871094 1872.433594 1516.230469 1864.882812 C 1513.589844 1834.074219 1507.960938 1802.90625 1517.980469 1772.140625 C 1520.089844 1765.65625 1520.03125 1758.464844 1520.960938 1751.597656 C 1526.859375 1731.4375 1531.988281 1708.5625 1556.21875 1704.695312 C 1580.148438 1700.867188 1597.328125 1717.140625 1610.359375 1735.203125 C 1627.121094 1758.449219 1642.78125 1782.835938 1630.289062 1813.867188 "/>
<path fill-rule="nonzero" fill="rgb(78.90625%, 45.483398%, 55.664062%)" fill-opacity="1" d="M 904 1862.035156 C 909.394531 1861.816406 914.785156 1861.589844 920.183594 1861.371094 C 954.519531 1872.890625 981.503906 1892.195312 998.070312 1926.136719 C 1013.21875 1957.160156 1050.621094 1972.210938 1074.980469 1935.105469 C 1119.660156 1867.066406 1181.949219 1843.578125 1261.398438 1848.761719 C 1289.191406 1850.574219 1321.519531 1851.585938 1346.550781 1830.429688 C 1345.851562 1833.714844 1345.761719 1837.285156 1344.339844 1840.226562 C 1326.589844 1877.144531 1326.691406 1876.511719 1285.660156 1866.882812 C 1255.890625 1859.894531 1226 1855.257812 1194.808594 1860.234375 C 1128.25 1870.855469 1088.449219 1921.414062 1101.148438 1987.046875 C 1105.871094 2011.464844 1097.359375 2014.164062 1078.019531 2013.714844 C 1050.898438 2013.089844 1023.75 2013.609375 996.625 2013.507812 C 985.578125 2013.472656 979.824219 2011.34375 981.089844 1996.675781 C 987.355469 1923.910156 970.765625 1896.117188 904 1862.035156 "/>
<path fill-rule="nonzero" fill="rgb(75.193787%, 38.035583%, 50.584412%)" fill-opacity="1" d="M 603.390625 1540.574219 C 599.070312 1574.148438 592.769531 1607.609375 590.84375 1641.320312 C 586.84375 1711.355469 605.117188 1775.015625 652.421875 1828.519531 C 657.480469 1834.246094 664.351562 1838.792969 671.132812 1842.507812 C 689.996094 1852.84375 700.910156 1849.273438 698.519531 1825.273438 C 711.96875 1840.929688 711.253906 1862.878906 722.988281 1879.597656 C 728.714844 1887.757812 721.15625 1893.730469 714.28125 1898.53125 C 692.671875 1913.613281 678.113281 1933.984375 672.117188 1959.578125 C 669.457031 1970.960938 663.84375 1975 657.984375 1964.582031 C 647.121094 1945.242188 630.273438 1931.730469 614.667969 1917.566406 C 621.480469 1904.429688 632.773438 1919.425781 639.265625 1908.765625 C 637.789062 1905.160156 636.769531 1899.757812 633.769531 1895.886719 C 622.027344 1880.714844 599.347656 1866.121094 599.195312 1851.128906 C 598.160156 1750.589844 563.21875 1649.90625 598.308594 1549.4375 C 599.414062 1546.277344 601.671875 1543.523438 603.390625 1540.574219 "/>
<path fill-rule="nonzero" fill="rgb(74.021912%, 41.575623%, 52.539062%)" fill-opacity="1" d="M 1161.789062 1892.597656 C 1156.960938 1898.664062 1152.160156 1904.757812 1147.308594 1910.796875 C 1137.511719 1923.003906 1131.390625 1934.148438 1150.941406 1943.882812 C 1156.558594 1946.6875 1159.871094 1954.253906 1164.101562 1959.730469 C 1175.289062 1974.222656 1187.71875 1981.324219 1202.890625 1965.171875 C 1212.949219 1954.457031 1220 1958.230469 1228.671875 1967.503906 C 1241.410156 1981.144531 1275.378906 1982.800781 1289.519531 1969.859375 C 1299.921875 1960.347656 1307.71875 1959.917969 1319.230469 1967.78125 C 1332.519531 1976.855469 1344.28125 1999.238281 1362.941406 1986.015625 C 1382.25 1972.34375 1362.78125 1952.597656 1362.570312 1935.460938 C 1382.628906 1954.257812 1380.28125 1978.472656 1375.121094 2001.132812 C 1371.621094 2016.566406 1356.109375 2022.636719 1340.480469 2025.183594 C 1323.078125 2028.027344 1314.460938 2023.269531 1314.921875 2003.484375 C 1315.179688 1991.96875 1322.140625 1970.894531 1305 1970.855469 C 1287.53125 1970.816406 1294.738281 1992.03125 1295.171875 2003.265625 C 1296.570312 2040.007812 1269.96875 2027.683594 1251.421875 2030.425781 C 1229.558594 2033.652344 1224.679688 2023.132812 1225.46875 2003.429688 C 1225.949219 1991.632812 1232.328125 1970.945312 1216.140625 1969.703125 C 1196.828125 1968.222656 1206.488281 1989.421875 1203.699219 2000.65625 C 1201.121094 2011.015625 1206.488281 2026.355469 1191.230469 2028.8125 C 1170.851562 2032.089844 1150.679688 2028.738281 1136.269531 2011.398438 C 1110.171875 1979.992188 1124.738281 1912.921875 1161.789062 1892.597656 "/>
<path fill-rule="nonzero" fill="rgb(47.068787%, 21.18988%, 35.693359%)" fill-opacity="1" d="M 1751.679688 1630.859375 C 1723.371094 1628.269531 1702.109375 1607.183594 1673.921875 1602.351562 C 1654.421875 1599.003906 1640.109375 1602.988281 1625.828125 1614.085938 C 1633.761719 1593.011719 1651.308594 1577.367188 1657.449219 1554.058594 C 1643.21875 1558.007812 1633.410156 1552.796875 1626.421875 1537.484375 C 1620.859375 1525.320312 1606.808594 1516.726562 1602.429688 1504.441406 C 1599.179688 1495.308594 1610.078125 1488.484375 1621.160156 1488.453125 C 1619.5 1503.445312 1626.851562 1514.632812 1635.578125 1525.894531 C 1642.800781 1535.214844 1650.429688 1537.363281 1660.261719 1531.773438 C 1687.148438 1516.488281 1717.25 1511.378906 1746.648438 1503.984375 C 1752.441406 1507.089844 1754.148438 1512.339844 1749.71875 1516.671875 C 1739.511719 1526.644531 1746.761719 1528.550781 1755.140625 1531.722656 C 1777.339844 1540.117188 1786.570312 1558.40625 1789.089844 1580.304688 C 1792.441406 1609.316406 1788.410156 1612.695312 1759.441406 1610.304688 C 1733.851562 1608.195312 1750.109375 1622.421875 1751.679688 1630.859375 "/>
<path fill-rule="nonzero" fill="rgb(76.5625%, 37.255859%, 50.193787%)" fill-opacity="1" d="M 603.75 1456.246094 C 589.453125 1477.4375 581.148438 1501.804688 573.855469 1525.488281 C 565.957031 1551.121094 553.984375 1547.765625 537.382812 1538.019531 C 497.777344 1514.777344 465.757812 1483.449219 440.082031 1445.507812 C 434.886719 1430.808594 446.101562 1430.171875 454.132812 1431.984375 C 496.136719 1441.472656 535.199219 1428.578125 574.691406 1418.074219 C 580.574219 1416.511719 586.625 1415.359375 592.722656 1415.15625 C 607.988281 1414.628906 617.667969 1419.582031 609.53125 1436.570312 C 606.429688 1443.0625 608.140625 1450.472656 603.75 1456.246094 "/>
<path fill-rule="nonzero" fill="rgb(73.242188%, 45.483398%, 57.226562%)" fill-opacity="1" d="M 1504.660156 1266.597656 C 1533.449219 1264.070312 1534.898438 1259.105469 1529.070312 1232.195312 C 1525.601562 1216.136719 1534.679688 1199.9375 1547.578125 1187.925781 C 1550.441406 1205.601562 1567.648438 1193.078125 1575.210938 1201.300781 C 1575.210938 1202.648438 1575.890625 1204.773438 1575.109375 1205.84375 C 1567.730469 1216.011719 1548.070312 1221.003906 1552.199219 1234.160156 C 1555.828125 1245.738281 1574.230469 1239.414062 1585.820312 1242.339844 C 1592.519531 1244.027344 1599.351562 1245.167969 1612.140625 1247.78125 C 1569.488281 1272.101562 1519.609375 1266.304688 1482.601562 1299.871094 C 1503.140625 1304.847656 1516.769531 1290.554688 1533.570312 1295.238281 C 1413.398438 1393.261719 1271.710938 1430.339844 1120.25 1440.007812 C 1120.121094 1438.59375 1120.070312 1437.179688 1120.121094 1435.765625 C 1183.871094 1430.171875 1247.140625 1421.382812 1307.539062 1399.335938 C 1371.089844 1376.140625 1429.699219 1344.566406 1475.800781 1293.277344 C 1484.53125 1283.578125 1495 1275.449219 1504.660156 1266.597656 "/>
<path fill-rule="nonzero" fill="rgb(42.358398%, 13.719177%, 34.130859%)" fill-opacity="1" d="M 1630.289062 1813.867188 C 1629.609375 1780.449219 1619.601562 1751.085938 1594.71875 1727.371094 C 1571.800781 1705.53125 1540.050781 1697.730469 1527.890625 1740.832031 C 1526.789062 1744.757812 1523.328125 1748.019531 1520.960938 1751.59375 C 1518.511719 1734.355469 1525.699219 1721.042969 1538.019531 1709.820312 C 1545.851562 1702.6875 1554.929688 1694.964844 1555.570312 1684.476562 C 1556.660156 1666.480469 1567.671875 1659.828125 1582.25 1657.945312 C 1599.441406 1655.722656 1615.121094 1660.1875 1625.308594 1676.117188 C 1629.460938 1682.605469 1632.679688 1691.480469 1641.921875 1690.570312 C 1648.71875 1689.898438 1646.171875 1682.355469 1646.910156 1677.554688 C 1659.550781 1686.578125 1667.859375 1698.035156 1667.601562 1714.320312 C 1664.25 1712.089844 1659.640625 1707.210938 1657.78125 1708.097656 C 1651.390625 1711.144531 1650.691406 1718.597656 1653.230469 1723.949219 C 1670.558594 1760.496094 1650.511719 1787.125 1630.289062 1813.867188 "/>
<path fill-rule="nonzero" fill="rgb(41.184998%, 13.719177%, 32.151794%)" fill-opacity="1" d="M 603.75 1456.246094 C 607.351562 1416.105469 607.195312 1415.582031 567.226562 1427.222656 C 528.898438 1438.386719 490.941406 1450.792969 450.535156 1437.632812 C 443.453125 1435.324219 441.445312 1440.074219 440.085938 1445.511719 C 435.007812 1431.429688 429.933594 1417.351562 424.863281 1403.273438 C 463.183594 1429.757812 512.546875 1426.339844 547.203125 1393.953125 C 555.453125 1386.246094 563.578125 1381.71875 575.070312 1382.445312 C 600.46875 1384.035156 589.71875 1371.96875 582.636719 1361.496094 C 634.371094 1378.269531 637.527344 1384.253906 617.816406 1431.714844 C 614.226562 1440.347656 608.492188 1448.089844 603.75 1456.246094 "/>
<path fill-rule="nonzero" fill="rgb(41.967773%, 25.097656%, 41.575623%)" fill-opacity="1" d="M 1029.730469 562.050781 C 1017.019531 547.308594 1018.660156 529.128906 1019.199219 511.921875 C 1019.738281 494.621094 1011.941406 492.46875 996.894531 492.191406 C 957.066406 491.460938 937.628906 518.898438 920.34375 547.078125 C 903.183594 575.050781 894.726562 606.441406 897.667969 640.171875 C 898.519531 649.898438 905.117188 663.640625 893.484375 668.75 C 880.492188 674.449219 874.855469 659.019531 866.78125 651.910156 C 863.828125 649.308594 862.980469 644.320312 861.167969 640.421875 C 872.679688 642.921875 875.988281 657.699219 891.164062 659.300781 C 880.144531 605.691406 903.035156 561.53125 928.445312 517.960938 C 909.246094 522.710938 903.488281 528.988281 889.566406 559.761719 C 881.457031 577.671875 883.972656 598.761719 873.585938 617.109375 C 850.648438 578.898438 858.558594 518.148438 890.769531 511.679688 C 928.691406 504.050781 964.476562 486.738281 1004.109375 486.609375 C 1019.851562 486.558594 1025.941406 491.351562 1025.761719 507.578125 C 1025.558594 525.71875 1028.28125 543.890625 1029.730469 562.050781 "/>
<path fill-rule="nonzero" fill="rgb(75.193787%, 37.646484%, 49.414062%)" fill-opacity="1" d="M 1746.648438 1503.988281 C 1746.160156 1509.875 1743.550781 1513.441406 1737.140625 1514.128906 C 1708.289062 1517.210938 1681.371094 1526.445312 1656.441406 1541.066406 C 1646 1547.1875 1639.121094 1546.292969 1633.578125 1534.902344 C 1630.601562 1528.796875 1626.828125 1522.246094 1621.621094 1518.199219 C 1608.339844 1507.902344 1610.628906 1498.523438 1621.160156 1488.453125 C 1665.539062 1473.050781 1707.941406 1473.652344 1746.648438 1503.988281 "/>
<path fill-rule="nonzero" fill="rgb(52.539062%, 22.338867%, 40.380859%)" fill-opacity="1" d="M 1394.878906 1940.097656 C 1407.660156 1967.253906 1419.109375 1956.523438 1434.148438 1940.722656 C 1457.101562 1916.609375 1454.261719 1885.007812 1462.320312 1856.707031 C 1471.300781 1825.136719 1476.539062 1792.507812 1489.179688 1761.949219 C 1489.171875 1794.738281 1474.410156 1824.578125 1470.300781 1856.566406 C 1468.96875 1866.90625 1462.71875 1877.945312 1483.089844 1874.363281 C 1494.101562 1872.425781 1492.089844 1883.027344 1488.03125 1888.902344 C 1482.609375 1896.730469 1474.558594 1902.761719 1469.371094 1910.699219 C 1462.960938 1920.5 1448.550781 1928.445312 1460.828125 1944.140625 C 1466.171875 1950.980469 1459.648438 1957.941406 1453.980469 1961.777344 C 1437.488281 1972.933594 1424.75 1998.101562 1406.160156 1994.730469 C 1390.210938 1991.835938 1404.878906 1964.867188 1396.648438 1950.257812 C 1395.058594 1947.429688 1395.421875 1943.507812 1394.878906 1940.097656 "/>
<path fill-rule="nonzero" fill="rgb(74.804688%, 39.598083%, 52.929688%)" fill-opacity="1" d="M 856.597656 1972.269531 C 864.042969 1952.878906 871.828125 1962.773438 877.003906 1973 C 882.523438 1983.910156 883.652344 1996.320312 883.253906 2008.75 C 883.097656 2013.5625 881.488281 2020.179688 888.144531 2022.105469 C 893.558594 2023.671875 898.671875 2020.347656 901.820312 2016.292969 C 906.585938 2010.171875 910.890625 2003.492188 914.210938 1996.492188 C 921.980469 1980.113281 926.4375 1962.265625 939.546875 1948.398438 C 952.535156 1934.660156 936.929688 1922.632812 935.363281 1909.6875 C 959.378906 1931.179688 965.28125 1990.839844 945.71875 2014.304688 C 938.613281 2022.824219 894.21875 2033.765625 884.464844 2029.460938 C 873.511719 2024.640625 879.230469 2014.359375 876.734375 2006.765625 C 872.511719 1993.949219 882.246094 1972.636719 856.597656 1972.269531 "/>
<path fill-rule="nonzero" fill="rgb(67.381287%, 41.575623%, 55.664062%)" fill-opacity="1" d="M 509.601562 1176.671875 C 510.480469 1176.621094 511.351562 1176.539062 512.230469 1176.550781 C 524.367188 1176.601562 536.96875 1179.289062 538.527344 1192.675781 C 540.089844 1206.066406 523.664062 1200.964844 517.085938 1207.421875 C 517.609375 1215.992188 526.285156 1217.066406 530.65625 1221.941406 C 538.855469 1231.089844 544.378906 1238.441406 528.542969 1245.683594 C 513.199219 1252.695312 519.921875 1261.113281 530.183594 1264.851562 C 538.40625 1267.84375 546.027344 1271.503906 553.886719 1275.152344 C 571.175781 1283.183594 592.476562 1287.632812 578.84375 1315.023438 C 577.84375 1317.027344 581.339844 1321.265625 582.742188 1324.46875 C 566.160156 1320.691406 553.300781 1308.523438 546.890625 1295.777344 C 534.230469 1270.613281 512.488281 1266.089844 489.421875 1261.132812 C 483.441406 1259.84375 477.535156 1258.226562 471.628906 1256.65625 C 467.214844 1255.476562 462.214844 1253.203125 463.816406 1248.242188 C 464.898438 1244.878906 469.695312 1240.824219 473.183594 1240.460938 C 485.363281 1239.1875 497.738281 1239.902344 509.953125 1238.851562 C 519.246094 1238.050781 531.878906 1231.953125 519.660156 1223.773438 C 486.1875 1201.367188 517.078125 1200.617188 528.445312 1194.179688 C 526.957031 1181.738281 513.417969 1184.804688 509.601562 1176.671875 "/>
<path fill-rule="nonzero" fill="rgb(17.651367%, 7.446289%, 27.43988%)" fill-opacity="1" d="M 893.28125 1055.328125 C 886.84375 1074.511719 879.328125 1093.171875 867.289062 1109.679688 C 837.785156 1139.648438 804.375 1157.320312 759.945312 1152.371094 C 700.292969 1145.730469 651.675781 1092.570312 651.988281 1030.351562 C 652.324219 963.941406 700.0625 907.328125 760.035156 902.25 C 827.035156 896.578125 881.765625 938.058594 891.394531 1003.089844 C 893.929688 1020.21875 892.753906 1037.898438 893.28125 1055.328125 "/>
<path fill-rule="nonzero" fill="rgb(28.637695%, 10.984802%, 26.268005%)" fill-opacity="1" d="M 508.578125 558.601562 C 507.890625 506.128906 517.636719 448.410156 538.246094 392.761719 C 550.480469 359.71875 556.847656 357.390625 588.839844 370.230469 C 673.136719 404.050781 736.5625 459.171875 770.96875 545.359375 C 779.53125 566.808594 775.042969 578.699219 755.5625 589.578125 C 680.933594 631.269531 618.5625 686.578125 571.300781 758.359375 C 567.265625 764.5 563.769531 774.710938 555.101562 773.699219 C 545.164062 772.539062 543.785156 761.320312 540.667969 753.519531 C 516.546875 693.179688 507.917969 630.128906 508.578125 558.601562 "/>
<path fill-rule="nonzero" fill="rgb(43.138123%, 25.87738%, 38.035583%)" fill-opacity="1" d="M 610.347656 1055.058594 C 597.148438 1043.160156 564.878906 1065.511719 562.011719 1032.910156 C 560.648438 1017.359375 576.78125 1008.929688 593.675781 1009.109375 C 614.855469 1009.339844 625.078125 1022.21875 628.6875 1040.988281 C 631.023438 1053.148438 622.261719 1055.46875 610.347656 1055.058594 "/>
<path fill-rule="nonzero" fill="rgb(18.431091%, 7.446289%, 27.43988%)" fill-opacity="1" d="M 1335.378906 904.300781 C 1402.621094 939.371094 1431.691406 995.871094 1415.46875 1059.929688 C 1399.289062 1123.839844 1336.570312 1162.210938 1272.210938 1147.46875 C 1262.078125 1145.148438 1252.078125 1142.289062 1242.019531 1139.691406 C 1142.390625 1082.050781 1161.941406 958.398438 1233.171875 913.570312 C 1266.441406 892.640625 1300.019531 893.039062 1335.378906 904.300781 "/>
<path fill-rule="nonzero" fill="rgb(30.200195%, 19.993591%, 31.37207%)" fill-opacity="1" d="M 1046.058594 1101.960938 C 1048.039062 1102.070312 1055.109375 1102.03125 1062.039062 1102.949219 C 1081.070312 1105.488281 1099.589844 1110.988281 1104.710938 1131.980469 C 1110.328125 1154.988281 1094.109375 1167.269531 1076.699219 1177.351562 C 1050.878906 1192.292969 1045.550781 1204.816406 1054.28125 1231.339844 C 1065.730469 1266.085938 1109.878906 1283.472656 1141.328125 1265.199219 C 1148.589844 1260.984375 1156.300781 1256 1162.011719 1264.324219 C 1167.511719 1272.34375 1160.550781 1278.984375 1154.421875 1284.300781 C 1134.398438 1301.664062 1087.761719 1298.257812 1062.101562 1273.738281 C 1045.339844 1257.730469 1035.148438 1255.691406 1018.449219 1273.410156 C 1000.761719 1292.164062 976.167969 1296.992188 950.40625 1294.53125 C 937.34375 1293.289062 927.101562 1287.472656 918.921875 1277.570312 C 914.625 1272.367188 913.003906 1266.378906 917.488281 1260.796875 C 923.089844 1253.808594 928.609375 1257.976562 932.90625 1262.640625 C 954.121094 1285.707031 975.484375 1275.898438 996.765625 1263.105469 C 1020.851562 1248.628906 1032.179688 1227.707031 1029.179688 1199.214844 C 1028.320312 1191.085938 1024.210938 1187.085938 1017.519531 1183.453125 C 996.214844 1171.890625 969.789062 1163.109375 976.160156 1130.820312 C 979.925781 1111.730469 1004.179688 1102.03125 1046.058594 1101.960938 "/>
<path fill-rule="nonzero" fill="rgb(30.200195%, 10.984802%, 26.268005%)" fill-opacity="1" d="M 1564.960938 547.878906 C 1566.558594 619.488281 1558.328125 689.480469 1531.390625 756.570312 C 1524.71875 773.171875 1518.300781 776.570312 1507.261719 759.851562 C 1456.5 682.988281 1389.371094 623.738281 1309.539062 578.558594 C 1295.050781 570.359375 1290.101562 561.230469 1295.910156 544.460938 C 1330.289062 445.109375 1403.570312 387.851562 1499.238281 354.019531 C 1513.371094 349.03125 1517.941406 357.648438 1523 367.511719 C 1546.171875 412.648438 1556.761719 461.269531 1562.75 511.101562 C 1564.210938 523.269531 1564.261719 535.621094 1564.960938 547.878906 "/>
<path fill-rule="nonzero" fill="rgb(30.200195%, 12.939453%, 31.37207%)" fill-opacity="1" d="M 1475.96875 988.558594 C 1494.789062 987.609375 1504.289062 996.761719 1509.410156 1009.390625 C 1513.390625 1019.199219 1511.28125 1028.941406 1497.539062 1030.121094 C 1489.679688 1030.789062 1481.789062 1031.371094 1473.910156 1031.320312 C 1463.898438 1031.25 1449.460938 1041.699219 1446.101562 1023.421875 C 1442.949219 1006.230469 1454.351562 995.929688 1468.921875 989.359375 C 1471.941406 988 1475.820312 988.578125 1475.96875 988.558594 "/>
<path fill-rule="nonzero" fill="rgb(61.131287%, 8.250427%, 36.083984%)" fill-opacity="1" d="M 778.839844 1129 C 748.339844 1133.308594 724.921875 1124.128906 706.097656 1102.921875 C 701.992188 1098.300781 696.769531 1093.179688 700.578125 1086.871094 C 704.886719 1079.730469 711.632812 1083.371094 716.691406 1086.578125 C 759.699219 1113.871094 797.042969 1107.050781 831.324219 1070.140625 C 836.847656 1064.199219 846.476562 1050.488281 857.4375 1061.121094 C 868.109375 1071.46875 862.125 1083.378906 853.371094 1093.628906 C 833.160156 1117.300781 810.648438 1135.660156 778.839844 1129 "/>
<path fill-rule="nonzero" fill="rgb(87.5%, 81.25%, 86.326599%)" fill-opacity="1" d="M 839.921875 964.53125 C 838.921875 979.710938 831.453125 990.71875 816.292969 991.328125 C 799.101562 992.019531 787.871094 981.660156 787.519531 964.089844 C 787.226562 949.761719 794.078125 937.570312 810.199219 937.109375 C 827.851562 936.609375 836.773438 948.050781 839.921875 964.53125 "/>
<path fill-rule="nonzero" fill="rgb(82.421875%, 43.530273%, 52.539062%)" fill-opacity="1" d="M 529.941406 573.539062 C 527.890625 517.769531 538.984375 463.910156 553.324219 410.449219 C 558.960938 389.421875 568.671875 382.269531 590.96875 391.910156 C 663.027344 423.078125 718.089844 470.679688 749.289062 544.261719 C 755.664062 559.308594 755.109375 566.558594 740.121094 575.480469 C 674.882812 614.320312 616.183594 660.871094 573.34375 724.960938 C 569.703125 730.398438 565.703125 738.96875 557.84375 736.859375 C 550.378906 734.859375 550.515625 725.488281 548.863281 718.949219 C 536.796875 671.25 528.28125 623.039062 529.941406 573.539062 "/>
<path fill-rule="nonzero" fill="rgb(64.256287%, 8.616638%, 38.035583%)" fill-opacity="1" d="M 1293.691406 1130.011719 C 1259.128906 1127.871094 1229.871094 1116.371094 1210.109375 1087.390625 C 1203.019531 1077.011719 1198.289062 1062.191406 1208.761719 1053.769531 C 1220.011719 1044.71875 1233.078125 1054.558594 1240.371094 1063.988281 C 1272.679688 1105.769531 1311.679688 1108.851562 1356.039062 1086.570312 C 1359.140625 1085.011719 1362.46875 1082.558594 1365.28125 1086.199219 C 1369.308594 1091.441406 1366.089844 1095.941406 1362.828125 1100.191406 C 1345.179688 1123.261719 1319.890625 1128.269531 1293.691406 1130.011719 "/>
<path fill-rule="nonzero" fill="rgb(82.421875%, 43.530273%, 52.929688%)" fill-opacity="1" d="M 1542.921875 559.160156 C 1542.941406 619.941406 1539.691406 669.710938 1523.878906 717.78125 C 1522.121094 723.121094 1523.441406 731.441406 1516.039062 733.070312 C 1508.578125 734.71875 1505.828125 727.019531 1502.628906 722.429688 C 1458.210938 658.699219 1399.96875 610.199219 1333.921875 570.78125 C 1315.71875 559.910156 1313 549.539062 1321.769531 530.5 C 1354.660156 459.070312 1409.171875 411.691406 1480.359375 380.949219 C 1499.859375 372.53125 1509.191406 377.5 1515.628906 396.78125 C 1534.378906 453.011719 1545.589844 510.261719 1542.921875 559.160156 "/>
<path fill-rule="nonzero" fill="rgb(87.5%, 81.25%, 86.326599%)" fill-opacity="1" d="M 1373.171875 984.339844 C 1372.171875 999.519531 1364.699219 1010.53125 1349.539062 1011.140625 C 1332.351562 1011.828125 1321.121094 1001.460938 1320.769531 983.898438 C 1320.480469 969.570312 1327.328125 957.378906 1343.449219 956.921875 C 1361.101562 956.421875 1370.019531 967.859375 1373.171875 984.339844 "/>
</svg>
