<?xml version="1.0" encoding="UTF-8"?>
<svg xmlns="http://www.w3.org/2000/svg" xmlns:xlink="http://www.w3.org/1999/xlink" width="2100" height="2100" viewBox="0 0 2100 2100">
<defs>
<radialGradient id="radial-pattern-0" gradientUnits="userSpaceOnUse" cx="0" cy="0" fx="0" fy="0" r="1050" gradientTransform="matrix(1, 0, 0, 1, 1050, 1050)">
<stop offset="0" stop-color="rgb(100%, 100%, 100%)" stop-opacity="1"/>
<stop offset="0.5" stop-color="rgb(100%, 100%, 100%)" stop-opacity="1"/>
<stop offset="0.5625" stop-color="rgb(100%, 100%, 100%)" stop-opacity="1"/>
<stop offset="0.589844" stop-color="rgb(99.989319%, 99.873352%, 99.942017%)" stop-opacity="1"/>
<stop offset="0.601562" stop-color="rgb(99.975586%, 99.67804%, 99.853516%)" stop-opacity="1"/>
<stop offset="1" stop-color="rgb(99.969482%, 99.607849%, 99.822998%)" stop-opacity="1"/>
</radialGradient>
</defs>

<path fill-rule="nonzero" fill="rgb(25.213623%, 8.605957%, 20.48645%)" fill-opacity="1" d="M 457.050781 1786.328125 C 391.789062 1757.5 356.894531 1704.449219 364.207031 1645.171875 C 371.964844 1582.300781 429.652344 1528.71875 502.238281 1516.960938 C 506.683594 1516.238281 511.410156 1514.019531 515.503906 1514.878906 C 570.277344 1526.421875 586.308594 1497.398438 596.96875 1448.839844 C 610.566406 1386.910156 641.46875 1330.441406 671.734375 1274.320312 C 684.039062 1251.5 687.574219 1223.949219 694.980469 1198.519531 C 696.894531 1191.949219 690.632812 1192.761719 687.578125 1191.398438 C 627.265625 1164.609375 572.507812 1130.109375 530.734375 1077.851562 C 524.910156 1070.570312 521.097656 1075.859375 517.855469 1078.730469 C 498.523438 1095.839844 479.714844 1113.539062 460.433594 1130.710938 C 457.839844 1133.019531 452.511719 1135.5 450.289062 1134.351562 C 444.949219 1131.578125 447.40625 1126.398438 450.21875 1122.808594 C 464.109375 1105.089844 476.574219 1085.789062 492.808594 1070.511719 C 507.121094 1057.03125 505.625 1048.101562 499.875 1029.890625 C 487.875 991.898438 469.410156 994.609375 442.148438 1010.910156 C 420.800781 1023.671875 398.414062 1034.691406 376.472656 1046.460938 C 371.824219 1048.949219 366.46875 1052.871094 362.328125 1046.960938 C 358.582031 1041.621094 362.34375 1037.011719 366.570312 1033.160156 C 395.921875 1006.351562 430.953125 988.710938 465.164062 969.199219 C 488.289062 956.011719 470.199219 930.761719 471.835938 911.238281 C 472.675781 901.21875 459.105469 906.730469 452.507812 906.949219 C 408.214844 908.46875 364.308594 913.761719 320.992188 923.320312 C 316.015625 924.421875 310.824219 926.601562 308.714844 919.960938 C 306.386719 912.660156 312.769531 910.71875 317.527344 909.019531 C 360.46875 893.730469 404.667969 883.128906 450.011719 879.328125 C 467.8125 877.828125 474.191406 874.160156 475.472656 854.410156 C 479.777344 788 492.210938 722.878906 516.371094 660.429688 C 527.960938 630.46875 506.800781 605.589844 502.539062 578.058594 C 489.058594 491.011719 492.132812 405.621094 519.957031 321.820312 C 535.039062 276.398438 557.6875 268.039062 623.191406 280.429688 C 690.191406 293.101562 753.15625 316.550781 812.1875 350.558594 C 818.75 354.339844 823.621094 354.511719 829.824219 349.621094 C 882.292969 308.269531 947.476562 290.519531 1003.898438 256.421875 C 1006.21875 255.019531 1011.820312 255.890625 1013.671875 257.828125 C 1015.429688 259.679688 1015.519531 264.878906 1014.230469 267.609375 C 1007.300781 282.261719 999.707031 296.589844 991.027344 313.621094 C 1024.628906 302.949219 1055.960938 292.761719 1087.46875 283.179688 C 1095.121094 280.859375 1103.78125 272.058594 1111.070312 280.371094 C 1117.488281 287.691406 1111.121094 296.648438 1107.96875 304.480469 C 1105.859375 309.710938 1103.371094 314.789062 1099.851562 322.609375 C 1139.980469 304.550781 1178.339844 288.78125 1210.558594 261.480469 C 1214.28125 258.328125 1217.960938 252.761719 1224.25 257.519531 C 1230.140625 261.96875 1227.921875 268.089844 1225.039062 271.851562 C 1196.171875 309.589844 1215.210938 321.488281 1252.589844 324.628906 C 1258.929688 325.160156 1266.140625 327.128906 1271.050781 330.898438 C 1307.019531 358.539062 1338.75 346.941406 1374.839844 327.171875 C 1430.070312 296.929688 1490.871094 281.011719 1554.210938 276.03125 C 1584.839844 273.609375 1605.878906 284.371094 1616.109375 314.230469 C 1652.699219 421.050781 1654.609375 528.5 1622.519531 636.691406 C 1621.328125 640.691406 1620.480469 645.859375 1621.988281 649.421875 C 1650.328125 716.609375 1662.878906 787.351562 1668.160156 859.460938 C 1669.289062 874.949219 1675.609375 877.738281 1688.660156 878.828125 C 1734.128906 882.628906 1778.230469 893.210938 1821.179688 908.46875 C 1826.390625 910.328125 1834.800781 911.308594 1831.710938 920.328125 C 1828.828125 928.738281 1822.121094 924.171875 1817.070312 923 C 1772.960938 912.75 1728.121094 908.78125 1683.03125 906.449219 C 1673.191406 905.941406 1670.839844 908.398438 1669.339844 918.730469 C 1664.609375 951.300781 1671.648438 972.671875 1706.449219 985.839844 C 1732.109375 995.558594 1753.570312 1016.441406 1776.738281 1032.578125 C 1781.628906 1035.988281 1785.738281 1040.878906 1781.75 1047.160156 C 1776.859375 1054.859375 1771.71875 1048.570312 1767.089844 1046.28125 C 1735.929688 1030.878906 1704.820312 1015.378906 1673.78125 999.730469 C 1664.511719 995.058594 1661.480469 997.789062 1655.238281 1006.859375 C 1632.859375 1039.351562 1637.730469 1064.359375 1668.488281 1088.039062 C 1679.449219 1096.46875 1686.238281 1110.359375 1694.710938 1121.921875 C 1697.570312 1125.828125 1701.078125 1130.570312 1695.25 1134.621094 C 1690.230469 1138.109375 1687.121094 1133.648438 1683.820312 1130.601562 C 1665.46875 1113.621094 1646.679688 1097.089844 1628.859375 1079.578125 C 1620.550781 1071.429688 1616.480469 1072.488281 1609.160156 1081.28125 C 1567.828125 1130.890625 1514.449219 1164.058594 1456.078125 1189.679688 C 1446.320312 1193.96875 1446.128906 1197.910156 1447.730469 1207.671875 C 1458.839844 1275.328125 1498.199219 1331.339844 1523.539062 1393.039062 C 1566.851562 1498.488281 1577.839844 1601.609375 1516.71875 1703.988281 C 1515.78125 1708.988281 1518.898438 1711.539062 1522.609375 1713.660156 C 1534.640625 1720.539062 1543.191406 1730.910156 1551.179688 1741.898438 C 1573.660156 1772.800781 1566.320312 1821.648438 1541.460938 1848.960938 C 1518.339844 1874.339844 1490.648438 1887.058594 1455.800781 1887.699219 C 1433.738281 1888.101562 1411.601562 1889.878906 1389.488281 1889.308594 C 1370.230469 1888.808594 1350.878906 1887.261719 1333.058594 1878.980469 C 1325.390625 1875.410156 1319.460938 1876.910156 1312.410156 1880.769531 C 1276.128906 1900.609375 1238.160156 1905.101562 1198.539062 1891.878906 C 1195.800781 1890.96875 1192.75 1890.25 1190.691406 1888.460938 C 1170.890625 1871.300781 1147.949219 1877.679688 1125.320312 1878.640625 C 1085.601562 1880.328125 1045.789062 1881.269531 1006.078125 1878 C 995.460938 1877.128906 984.757812 1877.671875 974.195312 1875.75 C 969.484375 1874.890625 965.46875 1877.699219 961.644531 1880.058594 C 919.824219 1905.929688 876.722656 1904.03125 833.585938 1884.660156 C 821.90625 1879.421875 811.8125 1876.671875 800.058594 1882.878906 C 790.382812 1887.988281 779.203125 1888.21875 768.820312 1888.648438 C 733.21875 1890.101562 697.570312 1891.109375 662.101562 1885.191406 C 627.253906 1879.359375 603.578125 1858.378906 586.867188 1829.238281 C 580.882812 1818.800781 573.71875 1814.359375 562.957031 1813.421875 C 535.96875 1811.058594 509.347656 1806.398438 482.941406 1800.511719 C 473.0625 1798.308594 462.546875 1796.761719 457.050781 1786.328125 "/>
<path fill-rule="nonzero" fill="rgb(68.759155%, 38.230896%, 43.992615%)" fill-opacity="1" d="M 457.050781 1786.328125 C 494.949219 1800.761719 535.042969 1804.230469 574.738281 1809.460938 C 582.1875 1810.441406 585.628906 1813.039062 588.78125 1820 C 606.023438 1858.050781 635.863281 1879.578125 677.691406 1881.429688 C 723.515625 1883.441406 770.1875 1892.648438 814.210938 1870.179688 C 816.351562 1869.078125 820.890625 1872 824.011719 1873.628906 C 870.707031 1898 917.257812 1903.328125 963.214844 1872.128906 C 971.523438 1866.488281 979.03125 1871.410156 986.867188 1871.820312 C 1045.898438 1874.890625 1104.769531 1874.78125 1163.871094 1870.519531 C 1184.769531 1869.011719 1201.398438 1891.121094 1224.601562 1892.761719 C 1257.628906 1895.089844 1288.25 1890.179688 1315.988281 1871.78125 C 1321.570312 1868.070312 1324.980469 1867.910156 1330.980469 1871.410156 C 1376.640625 1898.058594 1499.28125 1884.269531 1533.570312 1849.128906 C 1572.910156 1808.828125 1566.769531 1748.789062 1519.878906 1717.640625 C 1513.761719 1713.578125 1510.070312 1710.351562 1516.71875 1703.988281 C 1552.46875 1713.898438 1588.519531 1722.859375 1623.851562 1734.078125 C 1644.800781 1740.738281 1665.171875 1749.871094 1684.78125 1759.898438 C 1704.621094 1770.039062 1726.648438 1782.890625 1725.191406 1807.929688 C 1723.578125 1835.519531 1698.199219 1846.621094 1676.300781 1856.578125 C 1592.609375 1894.660156 1502.328125 1905.171875 1412.511719 1915.53125 C 1293.230469 1929.289062 1173.210938 1934.960938 1053.261719 1932.648438 C 888.363281 1929.460938 723.414062 1923.261719 561.949219 1884.128906 C 532.859375 1877.089844 504.472656 1867.851562 479.03125 1851 C 454.648438 1834.859375 441.425781 1815.699219 457.050781 1786.328125 "/>
<path fill-rule="nonzero" fill="rgb(97.854614%, 77.780151%, 71.336365%)" fill-opacity="1" d="M 833.804688 1935.21875 C 793.105469 1939.039062 752.527344 1939.78125 712.347656 1930.910156 C 710.738281 1930.558594 709.464844 1928.679688 708.035156 1927.519531 C 709.503906 1926.300781 710.929688 1924.078125 712.449219 1924.011719 C 753.339844 1922.179688 793.820312 1925.300781 833.804688 1935.21875 "/>
<path fill-rule="nonzero" fill="rgb(99.916077%, 99.465942%, 99.511719%)" fill-opacity="1" d="M 1617.320312 948.171875 C 1570.238281 936.75 1522.621094 929.890625 1474.058594 931.480469 C 1469.269531 931.628906 1461.199219 929.210938 1460.808594 936.171875 C 1460.351562 944.300781 1469.109375 941.75 1474.039062 942.699219 C 1517.671875 951.070312 1561.199219 959.730469 1603.070312 975.078125 C 1604.609375 977.410156 1604.300781 979.988281 1602.960938 981.980469 C 1596.640625 991.390625 1589.921875 1000.511719 1582.308594 1008.921875 C 1580.121094 1011.328125 1577.21875 1012.949219 1573.640625 1011.789062 C 1537.238281 993.320312 1499.398438 978.96875 1459.121094 971.511719 C 1455.039062 970.761719 1450.28125 968.378906 1448.53125 973.46875 C 1446.398438 979.679688 1452.761719 980.558594 1456.550781 981.949219 C 1490.570312 994.429688 1523.441406 1009.25 1553.890625 1029.101562 C 1555.378906 1033.730469 1552.890625 1036.75 1549.929688 1039.898438 C 1523.28125 1068.300781 1491.808594 1090.449219 1458.488281 1110.078125 C 1374.820312 1159.398438 1283.351562 1185.558594 1187.949219 1198.710938 C 1141.710938 1205.078125 1094.988281 1208.558594 1048.21875 1206.699219 C 960.253906 1203.210938 873.53125 1191.539062 790.136719 1161.839844 C 727.144531 1139.398438 668.101562 1109.421875 616.566406 1066.078125 C 608.085938 1058.941406 600.4375 1050.871094 592.988281 1042.660156 C 589.578125 1038.898438 586.835938 1034.730469 590.574219 1029.519531 C 621.871094 1010.21875 654.722656 994.191406 689.441406 981.941406 C 693.710938 980.429688 702.566406 981.191406 700.660156 973.738281 C 698.945312 967.019531 691.902344 970.421875 686.828125 971.289062 C 645.128906 978.429688 606.324219 994.050781 568.238281 1011.761719 C 554.027344 1003.421875 543.960938 992.03125 541.3125 975.179688 C 583.847656 959.578125 627.464844 948.410156 672.441406 942.558594 C 677.148438 941.941406 685.53125 938.769531 685.433594 937.21875 C 684.914062 929.03125 677.304688 930.980469 672.082031 930.859375 C 621.925781 929.710938 572.746094 937.191406 524.011719 948.28125 C 510.730469 939.808594 501.292969 915.460938 506.753906 903.769531 C 562.578125 898.480469 618.488281 903.089844 674.605469 901.910156 C 637.386719 888.339844 598.695312 882.828125 559.71875 878.761719 C 555.640625 878.328125 551.507812 878.460938 547.433594 878.019531 C 490.597656 871.929688 490.972656 871.980469 502.246094 804.269531 C 510.730469 753.339844 523.375 703.699219 541.015625 655.078125 C 549.613281 631.378906 531.683594 610.699219 527.226562 588.320312 C 509.636719 499.980469 513.902344 413.238281 541.324219 327.519531 C 556.3125 280.660156 592.949219 298.96875 621.558594 303.578125 C 689.332031 314.488281 752.644531 339.570312 811.667969 374.808594 C 820.171875 379.890625 826.449219 378.859375 833.757812 373.269531 C 876.429688 340.621094 925.191406 319.28125 976.941406 296.019531 C 966.992188 310.011719 958.828125 321.058594 951.179688 332.460938 C 948.742188 336.089844 943.320312 339.378906 947.378906 345.199219 C 951.492188 351.089844 956.371094 347.160156 960.585938 345.851562 C 1001.699219 333.101562 1042.738281 320.101562 1088.628906 305.648438 C 1077.070312 320.238281 1068.230469 331.421875 1059.359375 342.570312 C 1056.171875 346.570312 1050.339844 350.019531 1054.578125 356.121094 C 1058.519531 361.769531 1063.570312 357.578125 1067.898438 356.121094 C 1108.691406 342.378906 1148.480469 326.289062 1195.5 297.511719 C 1153.460938 341.488281 1189.75 333.449219 1206.75 336.519531 C 1241.621094 342.800781 1275.238281 352.671875 1305.269531 371.730469 C 1316.121094 378.628906 1323.949219 378.691406 1335.011719 372.230469 C 1401.199219 333.558594 1471.828125 307.621094 1548.421875 298.261719 C 1574.511719 295.070312 1590.5 302.691406 1598.511719 328.660156 C 1629.261719 428.351562 1632.308594 528.160156 1601.390625 628.300781 C 1597.828125 639.820312 1598.050781 649.679688 1602.878906 661.191406 C 1630.390625 726.730469 1641.960938 795.859375 1647.390625 866.320312 C 1648.171875 876.488281 1643.28125 876.269531 1635.988281 876.359375 C 1579.070312 877.039062 1523.070312 884.011719 1468.53125 902.019531 C 1526.671875 902.71875 1584.78125 898.550781 1642.609375 905.800781 C 1643.230469 921.539062 1629.449219 944.621094 1617.320312 948.171875 "/>
<path fill-rule="nonzero" fill="rgb(99.528503%, 99.607849%, 99.534607%)" fill-opacity="1" d="M 1438.570312 1391.210938 C 1428.601562 1386.238281 1431.738281 1394.800781 1431.039062 1398.769531 C 1426.960938 1422.011719 1423.089844 1445.269531 1418.710938 1471.058594 C 1414.039062 1462.558594 1415.390625 1452.550781 1406.25 1452.671875 C 1395.960938 1452.808594 1397.890625 1463.039062 1396 1469.488281 C 1379.011719 1527.609375 1353.269531 1582.191406 1328.910156 1637.378906 C 1306.519531 1688.128906 1299.351562 1739.988281 1323.179688 1792.710938 C 1321.519531 1803.621094 1316.570312 1812.789062 1308.410156 1820.179688 C 1304.800781 1823.441406 1301.261719 1827.25 1295.550781 1824.839844 C 1294.488281 1820.121094 1294.050781 1815.140625 1292.199219 1810.761719 C 1290.398438 1806.511719 1291.121094 1798.609375 1283.199219 1800.351562 C 1274.691406 1802.21875 1279.890625 1808.300781 1280.179688 1813.050781 C 1280.679688 1821.109375 1280.398438 1829.210938 1280.449219 1837.289062 C 1269.730469 1849.589844 1255.371094 1844.898438 1242.238281 1845.011719 C 1238.578125 1845.039062 1236.191406 1841.261719 1238.230469 1836.851562 C 1238.140625 1835.621094 1238.199219 1834.371094 1237.949219 1833.191406 C 1236.128906 1824.429688 1241.859375 1808.789062 1229.820312 1808.949219 C 1216.730469 1809.109375 1228.148438 1824.730469 1223.648438 1832.300781 C 1217.21875 1835.308594 1212.621094 1831.640625 1208.179688 1827.910156 C 1186.671875 1809.851562 1174.53125 1786.410156 1172.011719 1758.828125 C 1166.070312 1693.71875 1168.429688 1628.378906 1170.101562 1563.199219 C 1170.890625 1532.398438 1174.429688 1501.351562 1181.109375 1470.96875 C 1181.289062 1470.171875 1181.640625 1469.359375 1181.601562 1468.558594 C 1181.328125 1463.410156 1184.339844 1456.019531 1179.160156 1453.808594 C 1173.519531 1451.410156 1170.949219 1458.609375 1167.921875 1462.78125 C 1149.050781 1488.730469 1141.460938 1518.871094 1135.378906 1549.609375 C 1131.558594 1568.921875 1128.199219 1588.300781 1125.269531 1607.75 C 1124.710938 1611.460938 1123.660156 1615.019531 1122.148438 1618.339844 C 1119.738281 1623.609375 1115.480469 1626.550781 1110.519531 1622.019531 C 1104.320312 1616.359375 1100.410156 1619.679688 1096 1623.988281 C 1088.339844 1631.480469 1080.03125 1638.109375 1070.378906 1642.898438 C 1065.808594 1645.171875 1061.019531 1646.890625 1056.460938 1643.390625 C 1051.851562 1639.851562 1052.550781 1634.769531 1053.539062 1629.800781 C 1053.78125 1628.589844 1054.140625 1627.421875 1054.398438 1626.21875 C 1055.179688 1622.769531 1058.148438 1618.480469 1054.460938 1616.050781 C 1050.570312 1613.480469 1048.121094 1618.25 1045.410156 1620.410156 C 1037.710938 1626.558594 1030.03125 1632.710938 1021.480469 1637.648438 C 1013.519531 1642.261719 1006.660156 1642.308594 1002.359375 1632.679688 C 995.710938 1584.660156 988.003906 1536.851562 974.699219 1490.128906 C 971.554688 1487.578125 967.675781 1485.789062 966.066406 1481.699219 C 961.738281 1490.871094 964.632812 1500.351562 965.207031 1509.570312 C 965.816406 1519.328125 965.472656 1529.261719 967.53125 1538.851562 C 971.03125 1555.140625 968.316406 1571.378906 968.125 1587.660156 C 967.707031 1623.28125 968.003906 1658.910156 967.988281 1694.53125 C 967.976562 1717.871094 966.195312 1741.101562 962.710938 1764.128906 C 959.585938 1784.761719 950.847656 1803.148438 937.453125 1819.21875 C 935.355469 1821.738281 932.996094 1824.03125 930.472656 1826.128906 C 926.589844 1829.351562 921.855469 1832.78125 917.1875 1830.25 C 911.976562 1827.429688 914.648438 1821.71875 915.433594 1817.089844 C 913.84375 1812.871094 913.972656 1806.179688 906.976562 1808.128906 C 900.695312 1809.878906 901.296875 1816.25 901.09375 1821.421875 C 900.820312 1828.320312 900.882812 1835.238281 900.800781 1842.160156 C 887.375 1846.269531 874.058594 1848.539062 861.402344 1839.800781 C 861.042969 1832.261719 860.652344 1824.730469 860.339844 1817.191406 C 860.097656 1811.378906 866.523438 1802.589844 857.382812 1800.648438 C 847.140625 1798.46875 850.421875 1810.109375 847.410156 1815.359375 C 845.953125 1817.898438 846.652344 1821.679688 846.375 1824.890625 C 834.667969 1829.011719 819.085938 1816.109375 817.964844 1801.039062 C 817.699219 1797.480469 818.480469 1793.851562 816.949219 1790.410156 C 850.71875 1709.96875 811.117188 1642.769531 778.585938 1573.949219 C 766.753906 1548.929688 757.949219 1522.480469 747.488281 1496.800781 C 745.410156 1491.691406 742.066406 1487.101562 739.308594 1482.28125 C 735.367188 1485.898438 731.425781 1489.511719 725.621094 1494.839844 C 719.882812 1461.699219 714.261719 1429.421875 708.738281 1397.128906 C 707.949219 1392.519531 709.386719 1385.558594 700.984375 1391.25 C 699.460938 1394.28125 700.285156 1397.53125 700.09375 1400.679688 C 699.929688 1403.421875 700.460938 1406.769531 696.480469 1407.011719 C 692.464844 1407.238281 693.046875 1403.378906 691.953125 1401.058594 C 688.671875 1351.421875 690.039062 1302.101562 701.746094 1253.449219 C 706.636719 1250.828125 710.488281 1253.789062 714.273438 1256.039062 C 779.167969 1294.71875 850.460938 1313.398438 924.398438 1324.730469 C 987.082031 1334.328125 1050.128906 1336.070312 1113.160156 1333.640625 C 1180 1331.058594 1245.78125 1320.03125 1310.210938 1301.148438 C 1350.640625 1289.300781 1389.03125 1273.53125 1424.179688 1250.160156 C 1428.21875 1247.46875 1432.519531 1244.359375 1437.570312 1248.449219 C 1440.351562 1274.46875 1443.128906 1300.488281 1445.910156 1326.511719 C 1447.761719 1347.808594 1446.25 1369.148438 1446.671875 1390.46875 C 1446.75 1394.429688 1447.800781 1400.398438 1442.710938 1400.71875 C 1436.429688 1401.109375 1440.949219 1394.089844 1438.570312 1391.210938 "/>
<path fill-rule="nonzero" fill="rgb(81.422424%, 82.965088%, 77.189636%)" fill-opacity="1" d="M 590.574219 1029.519531 C 619.003906 1068.808594 659.222656 1093.488281 700.628906 1115.851562 C 803.28125 1171.28125 914.144531 1195.058594 1030.050781 1199.410156 C 1197.199219 1205.671875 1354.808594 1175.449219 1495.128906 1079.160156 C 1516.230469 1064.679688 1534.378906 1045.890625 1553.890625 1029.101562 C 1566.328125 1036.890625 1578.550781 1045.070312 1591.289062 1052.328125 C 1599.960938 1057.28125 1598.761719 1061.191406 1592.828125 1067.808594 C 1524.71875 1143.949219 1435.191406 1182.71875 1339.660156 1207.480469 C 1106.78125 1267.859375 878.542969 1258.761719 658.777344 1152.421875 C 620.839844 1134.070312 588.59375 1107.808594 558.554688 1078.160156 C 543.640625 1063.449219 544.058594 1055.371094 562.210938 1046.300781 C 572.011719 1041.398438 581.140625 1035.160156 590.574219 1029.519531 "/>
<path fill-rule="nonzero" fill="rgb(81.352234%, 83.506775%, 77.026367%)" fill-opacity="1" d="M 1437.570312 1248.449219 C 1307.941406 1332.140625 1162.261719 1343.570312 1014.289062 1338.75 C 914.691406 1335.511719 816.980469 1318.398438 727.554688 1270.011719 C 718.589844 1265.160156 710.332031 1259 701.746094 1253.449219 C 701.714844 1252.640625 701.605469 1251.820312 701.660156 1251.011719 C 704.316406 1212.199219 715.945312 1203.339844 758.503906 1217.039062 C 977.703125 1287.589844 1197.300781 1284.058594 1414.839844 1206.339844 C 1422.738281 1203.519531 1426.621094 1203.949219 1428.488281 1212.921875 C 1430.980469 1224.871094 1434.5 1236.609375 1437.570312 1248.449219 "/>
<path fill-rule="nonzero" fill="rgb(81.352234%, 83.506775%, 77.026367%)" fill-opacity="1" d="M 1002.359375 1632.679688 C 1022.691406 1642.160156 1029.949219 1621.550781 1043.121094 1614.699219 C 1048.921875 1611.691406 1052.859375 1601.371094 1059.988281 1605.449219 C 1067.828125 1609.929688 1062.121094 1618.691406 1060.671875 1625.640625 C 1059.621094 1630.660156 1058.75 1635.71875 1057.808594 1640.75 C 1062.859375 1638.929688 1068.511719 1638 1072.820312 1635.089844 C 1080.589844 1629.851562 1087.789062 1623.679688 1094.800781 1617.421875 C 1103.089844 1610.019531 1111.539062 1597.839844 1115.25 1626.871094 C 1125.96875 1578.21875 1128.839844 1534.21875 1144.960938 1493.339844 C 1152.25 1474.859375 1161.828125 1457.730469 1176.929688 1444.351562 C 1179.511719 1442.058594 1182.960938 1440.769531 1186.011719 1439.019531 C 1186.371094 1442.289062 1187.460938 1445.660156 1186.980469 1448.800781 C 1170.621094 1554.679688 1169.96875 1661.019531 1179.539062 1767.410156 C 1182.089844 1795.699219 1199.160156 1817.300781 1223.648438 1832.300781 C 1223.988281 1845.28125 1220.648438 1859.289062 1209.460938 1864.078125 C 1198.800781 1868.640625 1189.898438 1856.75 1182.230469 1849.03125 C 1160.019531 1826.71875 1155.820312 1797.859375 1154.808594 1768.449219 C 1151.371094 1668.910156 1161.171875 1570.328125 1177.601562 1472.28125 C 1178.199219 1468.691406 1178.539062 1465.058594 1180.050781 1453.199219 C 1162.191406 1485.160156 1156.109375 1512.589844 1151.21875 1540.058594 C 1135.101562 1630.679688 1118.570312 1722.871094 1141.898438 1813.070312 C 1153.308594 1857.199219 1136.628906 1852.949219 1108.210938 1851.960938 C 1070.480469 1850.648438 1032.699219 1850.96875 994.945312 1850.140625 C 992.589844 1850.078125 982.976562 1854.148438 987.601562 1844.691406 C 1012.960938 1792.828125 1006.988281 1737.691406 1005.140625 1682.980469 C 1004.570312 1666.199219 1003.300781 1649.449219 1002.359375 1632.679688 "/>
<path fill-rule="nonzero" fill="rgb(99.880981%, 99.3927%, 99.731445%)" fill-opacity="1" d="M 388.089844 1639.648438 C 394.492188 1590.050781 453.695312 1542.761719 517.378906 1536.800781 C 532.472656 1535.390625 547.679688 1534.78125 562.839844 1534.71875 C 568.035156 1534.699219 577.011719 1530.121094 576.75 1542.25 C 576.550781 1551.5 577.863281 1559.101562 563.636719 1559.339844 C 547.300781 1559.621094 533.398438 1568.261719 527.144531 1584.199219 C 521.023438 1599.808594 526.226562 1614.078125 537.214844 1626.070312 C 551.960938 1642.160156 570.664062 1652.210938 591.144531 1658.691406 C 598.480469 1661.011719 601.359375 1666.511719 606.195312 1671.171875 C 647.234375 1710.691406 599.777344 1730.671875 587.730469 1758.359375 C 584.960938 1761.390625 581.421875 1761.808594 577.582031 1761.5 C 529.914062 1757.660156 483.09375 1749.910156 440.1875 1727.449219 C 417.558594 1715.601562 398.964844 1699.101562 390.925781 1673.5 C 387.453125 1662.449219 387.847656 1651.03125 388.089844 1639.648438 "/>
<path fill-rule="nonzero" fill="rgb(80.934143%, 83.583069%, 77.000427%)" fill-opacity="1" d="M 1438.570312 1391.210938 C 1439.890625 1393.550781 1441.199219 1395.890625 1445.910156 1404.269531 C 1445.910156 1374.289062 1445.910156 1350.398438 1445.910156 1326.511719 C 1446.648438 1349.550781 1447.230469 1372.589844 1448.328125 1395.609375 C 1448.488281 1399.058594 1444.839844 1405.230469 1452.710938 1405.738281 C 1459.550781 1409.640625 1458.28125 1416.351562 1457.75 1422.21875 C 1453.960938 1464.261719 1447.949219 1505.929688 1436.359375 1546.648438 C 1433.558594 1556.488281 1430.898438 1566 1417.941406 1566.011719 C 1414.671875 1566.011719 1414.25 1568.46875 1413.71875 1571 C 1405.898438 1608.339844 1421.328125 1650.898438 1473.160156 1656.53125 C 1482.75 1657.578125 1491.75 1654.488281 1500.53125 1650.738281 C 1505.640625 1648.558594 1510.910156 1644.980469 1516.480469 1649.921875 C 1516.121094 1651.078125 1515.820312 1652.238281 1515.410156 1653.371094 C 1504.808594 1682.851562 1495.148438 1709.648438 1452.210938 1697.929688 C 1427.058594 1691.058594 1400.96875 1704.238281 1376.808594 1714.628906 C 1372.878906 1716.320312 1367.589844 1718.128906 1370.171875 1724.308594 C 1372.921875 1730.859375 1377.519531 1728.769531 1382.371094 1726.621094 C 1399.308594 1719.109375 1417.039062 1714.851562 1435.621094 1714.449219 C 1437.089844 1720.101562 1432.828125 1722.308594 1429.410156 1725.238281 C 1413.960938 1738.488281 1404.050781 1755.171875 1399.71875 1775.011719 C 1394.28125 1799.921875 1407.011719 1817.511719 1432.328125 1819.230469 C 1445.359375 1820.121094 1458.539062 1820.648438 1471.589844 1818.28125 C 1477.328125 1817.238281 1483.128906 1816.691406 1487.148438 1822.449219 C 1479.011719 1846.441406 1467.480469 1864.960938 1437.070312 1862.171875 C 1408.609375 1859.558594 1379.660156 1864.910156 1351.339844 1857.550781 C 1342.109375 1855.148438 1336.929688 1853.078125 1343.261719 1841.550781 C 1352.089844 1825.46875 1353.578125 1806.988281 1345.460938 1790.480469 C 1320.25 1739.171875 1328.570312 1689.78125 1350.609375 1640.289062 C 1369.960938 1596.808594 1388.570312 1553 1407.519531 1509.320312 C 1410.039062 1514.910156 1406.988281 1526.078125 1416.238281 1526.039062 C 1425.75 1525.988281 1422.851562 1515.328125 1424.179688 1509.21875 C 1432.648438 1470.351562 1438.699219 1431.148438 1438.570312 1391.210938 "/>
<path fill-rule="nonzero" fill="rgb(80.934143%, 83.583069%, 77.000427%)" fill-opacity="1" d="M 691.953125 1401.058594 C 705.726562 1407.699219 694.746094 1391.550781 700.984375 1391.25 C 700.191406 1433.238281 707.28125 1474.429688 713.78125 1515.671875 C 714.957031 1523.121094 716.050781 1536.441406 718.621094 1536.800781 C 728.734375 1538.21875 725.554688 1525.039062 733.53125 1519.390625 C 752.527344 1587.449219 800.71875 1643.578125 808.382812 1715.851562 C 811.089844 1741.398438 803.25 1764.429688 794.519531 1787.378906 C 787.078125 1806.949219 786.90625 1825.921875 797.386719 1844.140625 C 802.210938 1852.53125 799.328125 1856.160156 791.375 1857.921875 C 756.078125 1865.730469 720.058594 1863.859375 684.972656 1859.890625 C 667.902344 1857.960938 660.839844 1837.441406 657.21875 1819.96875 C 663.40625 1814.410156 670.640625 1817.050781 677.179688 1818.230469 C 686.199219 1819.871094 695.179688 1819.980469 704.132812 1819.351562 C 731.464844 1817.449219 746.183594 1796.878906 738.800781 1770.351562 C 734.230469 1753.921875 725.765625 1739.46875 713.238281 1727.539062 C 709.578125 1724.050781 704.164062 1721.128906 706.242188 1714.421875 C 724.117188 1714.839844 740.679688 1720.300781 756.929688 1727.25 C 761.429688 1729.171875 767.511719 1733.210938 770.417969 1725.78125 C 773.078125 1718.96875 766.738281 1716.519531 761.976562 1714.460938 C 728.355469 1699.941406 694.023438 1690.398438 657.25 1701.488281 C 650.582031 1703.511719 646.304688 1701.589844 643.449219 1695.449219 C 633.324219 1673.691406 623.148438 1651.960938 612.988281 1630.21875 C 619.109375 1626.351562 623.289062 1630.210938 626.621094 1634.351562 C 653.421875 1667.609375 701.691406 1650.390625 718.363281 1617.71875 C 725.472656 1603.78125 726.5625 1588.738281 725.203125 1573.398438 C 724.71875 1567.949219 722.773438 1564.230469 716.53125 1563.488281 C 709.023438 1562.621094 705.445312 1557.230469 703.597656 1550.429688 C 694.371094 1516.488281 685.441406 1482.480469 683.664062 1447.109375 C 683.316406 1440.148438 680.824219 1433.480469 681.441406 1426.410156 C 681.945312 1420.601562 682.027344 1414.691406 689.316406 1412.898438 C 690.195312 1408.949219 691.074219 1405.011719 691.953125 1401.058594 "/>
<path fill-rule="nonzero" fill="rgb(99.880981%, 99.3927%, 99.731445%)" fill-opacity="1" d="M 1516.480469 1649.921875 C 1485.378906 1667.289062 1454.589844 1667.75 1427.910156 1642.890625 C 1399.488281 1616.410156 1403.980469 1582.648438 1412.289062 1548.53125 C 1418.941406 1551.359375 1413.011719 1563.480469 1421.550781 1561.988281 C 1429.589844 1560.601562 1429.140625 1551.308594 1430.941406 1544.800781 C 1443.480469 1499.28125 1450.988281 1452.960938 1452.710938 1405.738281 C 1459.328125 1375.25 1462.699219 1344.398438 1462.648438 1308.21875 C 1495.410156 1378.929688 1523.980469 1446.089844 1536.628906 1518.921875 C 1544.601562 1564.820312 1537 1608.378906 1516.480469 1649.921875 "/>
<path fill-rule="nonzero" fill="rgb(99.880981%, 99.3927%, 99.731445%)" fill-opacity="1" d="M 689.316406 1412.898438 C 684.15625 1458.191406 696.996094 1501.019531 708.023438 1543.980469 C 708.941406 1547.550781 704.84375 1572.941406 722.28125 1551.871094 C 722.578125 1551.519531 725.832031 1552.671875 726.683594 1553.859375 C 740.386719 1572.859375 729.425781 1622.261719 705.058594 1642.148438 C 681.179688 1661.660156 654.910156 1665.339844 628.835938 1644.890625 C 623.191406 1640.460938 618.253906 1635.128906 612.988281 1630.21875 C 580.800781 1551.808594 606.742188 1478.570312 633.769531 1405.800781 C 645.019531 1375.5 659.066406 1346.25 673.953125 1311.601562 C 675.113281 1349.710938 678.070312 1381.988281 689.316406 1412.898438 "/>
<path fill-rule="nonzero" fill="rgb(99.528503%, 99.607849%, 99.534607%)" fill-opacity="1" d="M 1487.148438 1822.449219 C 1472.03125 1823.308594 1456.929688 1824.800781 1441.808594 1824.898438 C 1399.28125 1825.179688 1381.789062 1798.160156 1398.628906 1758.738281 C 1406.511719 1740.300781 1417.898438 1724.71875 1435.621094 1714.449219 C 1503.558594 1708.53125 1546.429688 1758.460938 1524.019531 1817.398438 C 1517.679688 1820.789062 1511.328125 1821 1504.988281 1817.390625 C 1505.21875 1794.058594 1500.738281 1773.351562 1476.078125 1763.121094 C 1470.988281 1761.011719 1467.160156 1761.46875 1464.609375 1766.019531 C 1461.238281 1772.011719 1467.480469 1772.808594 1470.429688 1774.410156 C 1490.75 1785.421875 1493.488281 1802.289062 1487.148438 1822.449219 "/>
<path fill-rule="nonzero" fill="rgb(99.528503%, 99.607849%, 99.534607%)" fill-opacity="1" d="M 706.242188 1714.421875 C 723.394531 1727.199219 735.707031 1743.660156 742.910156 1763.75 C 757.140625 1803.449219 730.816406 1830.019531 682.429688 1824.691406 C 673.953125 1823.75 665.617188 1821.578125 657.21875 1819.96875 C 653.125 1799.160156 656.519531 1781.921875 678.816406 1773.089844 C 680.882812 1772.269531 681.820312 1768.609375 683.28125 1766.261719 C 679.796875 1764.929688 675.859375 1761.808594 672.902344 1762.558594 C 652.335938 1767.78125 644.023438 1783.03125 641.851562 1802.761719 C 641.488281 1803.5 641.195312 1804.25 641.046875 1805.03125 C 639.992188 1810.621094 643.871094 1818.261719 636.21875 1821.128906 C 627.890625 1824.25 622.710938 1818.089844 617.769531 1812.558594 C 612.492188 1793.671875 616.957031 1777.171875 630.066406 1762.851562 C 633.128906 1759.511719 636.949219 1756.859375 631.484375 1752.019531 C 626.253906 1747.378906 622.980469 1749.671875 619.25 1753.710938 C 607.980469 1765.921875 603.640625 1780.949219 601.507812 1798.609375 C 596.46875 1747.851562 646.007812 1708.921875 706.242188 1714.421875 "/>
<path fill-rule="nonzero" fill="rgb(82.858276%, 84.588623%, 79.141235%)" fill-opacity="1" d="M 915.433594 1817.089844 C 916.300781 1820.441406 917.164062 1823.789062 918.03125 1827.140625 C 922.039062 1824.460938 926.671875 1822.390625 929.964844 1819.011719 C 959.421875 1788.761719 961.859375 1749.421875 961.90625 1711.210938 C 962.003906 1627.910156 967.917969 1544.46875 962.023438 1459.550781 C 966.25 1469.738281 970.476562 1479.929688 974.699219 1490.128906 C 957.597656 1493.078125 968.167969 1505.410156 968.964844 1511.851562 C 979.414062 1596.578125 988.027344 1681.378906 984.539062 1766.910156 C 983.484375 1792.78125 980.71875 1818.820312 964.332031 1840.390625 C 955.347656 1852.21875 943.332031 1870.160156 929.359375 1863.96875 C 912.765625 1856.621094 911.246094 1835.570312 915.433594 1817.089844 "/>
<path fill-rule="nonzero" fill="rgb(82.344055%, 83.80127%, 77.960205%)" fill-opacity="1" d="M 388.089844 1639.648438 C 400.191406 1703.980469 435.324219 1732.820312 521.347656 1748.328125 C 543.363281 1752.289062 565.597656 1755.050781 587.730469 1758.359375 C 583.109375 1814.691406 544.933594 1781.679688 523.332031 1779.53125 C 443.648438 1771.601562 398.332031 1734.960938 387.289062 1674.640625 C 385.234375 1663.398438 387.707031 1651.339844 388.089844 1639.648438 "/>
<path fill-rule="nonzero" fill="rgb(82.514954%, 82.232666%, 77.55127%)" fill-opacity="1" d="M 1573.640625 1011.789062 C 1583.449219 999.550781 1593.261719 987.320312 1603.070312 975.078125 C 1643.101562 985.011719 1647.910156 1003.320312 1618.398438 1034.511719 C 1610.851562 1042.488281 1607.648438 1031.871094 1602.988281 1029.519531 C 1592.808594 1024.390625 1583.371094 1017.789062 1573.640625 1011.789062 "/>
<path fill-rule="nonzero" fill="rgb(80.622864%, 83.068848%, 78.128052%)" fill-opacity="1" d="M 541.3125 975.179688 C 550.285156 987.371094 559.261719 999.570312 568.238281 1011.761719 C 556.453125 1019.621094 544.648438 1027.449219 532.902344 1035.371094 C 529.46875 1037.679688 527.214844 1038.140625 523.941406 1034.199219 C 496.949219 1001.679688 501.847656 984.691406 541.3125 975.179688 "/>
<path fill-rule="nonzero" fill="rgb(79.615784%, 79.855347%, 72.187805%)" fill-opacity="1" d="M 574.492188 1576.648438 C 579.613281 1594.980469 584.703125 1612.929688 589.484375 1630.96875 C 589.75 1631.960938 586.757812 1634.941406 586.472656 1634.78125 C 569.867188 1625.800781 549.027344 1619.761719 546.613281 1597.46875 C 545.003906 1582.609375 559.648438 1581.238281 574.492188 1576.648438 "/>
<path fill-rule="nonzero" fill="rgb(82.4646%, 82.61261%, 78.579712%)" fill-opacity="1" d="M 816.949219 1790.410156 C 826.539062 1802.089844 826.132812 1822.300781 846.375 1824.890625 C 846.324219 1837.980469 847.207031 1850.890625 854.105469 1862.761719 C 819.90625 1859.738281 800.746094 1822.011719 816.949219 1790.410156 "/>
<path fill-rule="nonzero" fill="rgb(80.65033%, 83.081055%, 79.3396%)" fill-opacity="1" d="M 1295.550781 1824.839844 C 1304.761719 1814.128906 1313.96875 1803.421875 1323.179688 1792.710938 C 1336.660156 1820.648438 1322.871094 1850.308594 1291.5 1861.640625 C 1292.828125 1849.511719 1294.191406 1837.171875 1295.550781 1824.839844 "/>
<path fill-rule="nonzero" fill="rgb(81.465149%, 82.269287%, 78.78418%)" fill-opacity="1" d="M 1238.230469 1836.851562 C 1252.210938 1845.03125 1266.371094 1837.839844 1280.449219 1837.289062 C 1280.550781 1852 1274.960938 1864.621094 1260.921875 1869.109375 C 1250.539062 1872.429688 1238.570312 1870.808594 1227.300781 1871.390625 C 1230.941406 1859.871094 1234.578125 1848.359375 1238.230469 1836.851562 "/>
<path fill-rule="nonzero" fill="rgb(79.620361%, 80.549622%, 76.994324%)" fill-opacity="1" d="M 861.402344 1839.800781 C 874.535156 1840.578125 887.667969 1841.371094 900.800781 1842.160156 C 904.507812 1851.800781 908.210938 1861.441406 911.914062 1871.078125 C 901.839844 1870.910156 891.113281 1872.878906 881.839844 1870.070312 C 868.167969 1865.929688 862.605469 1853.71875 861.402344 1839.800781 "/>
<path fill-rule="nonzero" fill="rgb(82.858276%, 82.940674%, 80.577087%)" fill-opacity="1" d="M 506.753906 903.769531 C 512.507812 918.609375 518.261719 933.441406 524.011719 948.28125 C 515.027344 950.789062 506.046875 953.289062 497.0625 955.800781 C 496.207031 939.671875 494.542969 923.519531 494.867188 907.410156 C 495.011719 900.320312 502.539062 904.550781 506.753906 903.769531 "/>
<path fill-rule="nonzero" fill="rgb(84.614563%, 83.047485%, 80.36499%)" fill-opacity="1" d="M 1617.320312 948.171875 C 1625.75 934.050781 1634.179688 919.921875 1642.609375 905.800781 C 1656.648438 920.730469 1648.019531 938.71875 1645.949219 954.191406 C 1645.238281 959.480469 1627.269531 950.96875 1617.320312 948.171875 "/>
<path fill-rule="nonzero" fill="rgb(81.761169%, 78.862%, 74.740601%)" fill-opacity="1" d="M 617.769531 1812.558594 C 628.355469 1815.578125 641.050781 1823.789062 641.851562 1802.761719 C 640.308594 1822.199219 646.722656 1839.371094 658.671875 1857.140625 C 634.171875 1849.949219 621.046875 1835.730469 617.769531 1812.558594 "/>
<path fill-rule="nonzero" fill="rgb(79.208374%, 75.509644%, 75.45166%)" fill-opacity="1" d="M 1504.988281 1817.390625 C 1511.328125 1813.761719 1517.679688 1812.820312 1524.019531 1817.398438 C 1519.398438 1837.230469 1506.449219 1849.320312 1488.089844 1856.578125 C 1493.789062 1843.351562 1499.390625 1830.371094 1504.988281 1817.390625 "/>
<path fill-rule="nonzero" fill="rgb(24.143982%, 7.936096%, 19.86084%)" fill-opacity="1" d="M 1318.308594 955.589844 C 1253.351562 955.539062 1200.199219 904.078125 1200.121094 841.171875 C 1200.039062 775.359375 1253.300781 721.070312 1317.648438 721.359375 C 1382.339844 721.660156 1436.03125 775.890625 1435.980469 840.898438 C 1435.929688 904.28125 1383.238281 955.640625 1318.308594 955.589844 "/>
<path fill-rule="nonzero" fill="rgb(24.49646%, 7.658386%, 19.869995%)" fill-opacity="1" d="M 829.382812 955.859375 C 764.089844 956.488281 709.285156 904.058594 708.789062 840.5 C 708.292969 776.710938 762.410156 721.738281 826.175781 721.261719 C 889.753906 720.789062 947.160156 774.761719 947.71875 835.519531 C 948.339844 903.558594 897.558594 955.210938 829.382812 955.859375 "/>
<path fill-rule="nonzero" fill="rgb(26.957703%, 9.390259%, 22.665405%)" fill-opacity="1" d="M 1070.820312 980.648438 C 1074.078125 968.410156 1068.25 960.300781 1054.300781 954.109375 C 1042.289062 948.78125 1029.308594 940.070312 1032.039062 923.761719 C 1034.628906 908.25 1048.589844 904.230469 1061.699219 902.671875 C 1072.859375 901.351562 1084.480469 901.929688 1095.671875 903.441406 C 1108.46875 905.171875 1121.511719 909.460938 1124.660156 924.011719 C 1127.949219 939.199219 1116.738281 948.859375 1105.21875 953.359375 C 1077.289062 964.28125 1086.101562 986.519531 1089.261719 1004.710938 C 1092.820312 1025.269531 1109.03125 1038.339844 1129.601562 1040.738281 C 1150.570312 1043.191406 1162.621094 1030.160156 1167.890625 1010.390625 C 1169.03125 1006.128906 1172.261719 1002.671875 1177.101562 1004.941406 C 1182.660156 1007.539062 1182.070312 1012.839844 1180.710938 1017.820312 C 1175.53125 1036.851562 1163.351562 1049.351562 1144.191406 1053.511719 C 1119.949219 1058.78125 1100.328125 1048.941406 1086.441406 1029.871094 C 1079.308594 1020.089844 1077.46875 1021.980469 1071.261719 1029.960938 C 1058.179688 1046.769531 1040.921875 1055.949219 1018.808594 1052.441406 C 1000.410156 1049.511719 988.789062 1038.359375 983.371094 1020.949219 C 981.6875 1015.53125 978.339844 1007.660156 985.898438 1004.710938 C 995.414062 1001.011719 994.855469 1010.921875 996.386719 1015.851562 C 1001.941406 1033.730469 1014.539062 1041.660156 1031.898438 1038.480469 C 1054.339844 1034.378906 1066.96875 1018.988281 1070.71875 996.628906 C 1071.449219 992.238281 1070.820312 987.621094 1070.820312 980.648438 "/>
<path fill-rule="nonzero" fill="rgb(97.494507%, 90.835571%, 36.434937%)" fill-opacity="1" d="M 1267.339844 863.941406 C 1306.859375 910.929688 1357.769531 909.96875 1396.441406 861.5 C 1403.789062 859.351562 1411.160156 855.929688 1418.441406 861.699219 C 1410.230469 905.460938 1367.460938 940.898438 1321.089844 942.351562 C 1274.171875 943.828125 1229.109375 911.558594 1218.410156 868.808594 C 1216.800781 862.988281 1220.480469 859.851562 1225.039062 859.53125 C 1239.328125 858.519531 1254.03125 855.070312 1267.339844 863.941406 "/>
<path fill-rule="nonzero" fill="rgb(99.412537%, 99.563599%, 98.768616%)" fill-opacity="1" d="M 1244.191406 767.601562 C 1251.921875 756.628906 1261.800781 743.359375 1275.398438 752.78125 C 1292.980469 764.960938 1301.210938 785.25 1297.191406 806.988281 C 1293.308594 827.949219 1276.109375 830.289062 1258.210938 829.101562 C 1244.910156 829.808594 1235.289062 820.871094 1233.46875 806.460938 C 1231.640625 791.96875 1235.128906 779.039062 1244.191406 767.601562 "/>
<path fill-rule="nonzero" fill="rgb(90.991211%, 55.162048%, 24.688721%)" fill-opacity="1" d="M 1244.191406 767.601562 C 1236.199219 790.988281 1229.910156 813.988281 1258.210938 829.101562 C 1261.261719 840.71875 1264.300781 852.328125 1267.339844 863.941406 C 1251.179688 867.058594 1233.769531 857.71875 1218.410156 868.820312 C 1207.820312 830.191406 1215.519531 796.230469 1244.191406 767.601562 "/>
<path fill-rule="nonzero" fill="rgb(88.059998%, 57.43866%, 25.45166%)" fill-opacity="1" d="M 1418.441406 861.699219 C 1411.078125 864.589844 1403.738281 865.078125 1396.441406 861.5 C 1400.101562 852.101562 1403.378906 842.519531 1407.550781 833.359375 C 1409.878906 828.238281 1404.300781 817.53125 1415.078125 818.609375 C 1424.449219 819.550781 1422.210938 829.511719 1422.179688 835.640625 C 1422.148438 844.328125 1419.800781 853.011719 1418.441406 861.699219 "/>
<path fill-rule="nonzero" fill="rgb(97.546387%, 90.766907%, 36.976624%)" fill-opacity="1" d="M 928.226562 869.171875 C 916.3125 913.128906 870.277344 944.761719 821.367188 942.589844 C 777.296875 940.628906 733.820312 904.648438 726.1875 863.808594 C 726.96875 862.878906 727.515625 861.410156 728.675781 861.191406 C 747.449219 857.671875 766.234375 854.410156 784.375 863.910156 C 822.332031 912.210938 874.070312 910.480469 913.679688 859.589844 C 921.765625 857.871094 927.234375 860.128906 928.226562 869.171875 "/>
<path fill-rule="nonzero" fill="rgb(87.969971%, 55.969238%, 22.686768%)" fill-opacity="1" d="M 784.375 863.910156 C 764.980469 863.878906 745.582031 863.851562 726.1875 863.808594 C 711.785156 820.96875 745.042969 753.378906 781.648438 751.089844 C 784.488281 756.570312 779.816406 759.199219 777.164062 762.421875 C 771.097656 769.769531 767.085938 778.140625 764.640625 787.21875 C 760.828125 801.398438 765.386719 812.550781 777.804688 820.621094 C 780.71875 822.519531 784.84375 823.371094 784.71875 828.089844 C 784.714844 828.320312 784.339844 828.660156 784.082031 828.730469 C 783.707031 828.828125 783.277344 828.71875 782.871094 828.710938 C 770.613281 840.988281 782.625 852.230469 784.375 863.910156 "/>
<path fill-rule="nonzero" fill="rgb(99.412537%, 99.563599%, 98.768616%)" fill-opacity="1" d="M 782.871094 828.710938 C 769.800781 825.550781 760.515625 817.359375 758.652344 804.359375 C 755.523438 782.480469 764.589844 764.789062 781.65625 751.089844 C 813.011719 750.078125 815.441406 775.960938 818.734375 795.898438 C 822.789062 820.441406 805.746094 829.578125 782.871094 828.710938 "/>
<path fill-rule="nonzero" fill="rgb(86.366272%, 57.36084%, 26.274109%)" fill-opacity="1" d="M 928.226562 869.171875 C 923.378906 865.980469 918.527344 862.78125 913.679688 859.589844 C 916.078125 853.160156 918.492188 846.75 920.878906 840.320312 C 923.597656 832.988281 926.292969 825.660156 928.996094 818.339844 C 937.128906 825.53125 932.839844 834.988281 932.773438 843.261719 C 932.703125 851.910156 929.859375 860.539062 928.226562 869.171875 "/>
<path fill-rule="nonzero" fill="rgb(97.061157%, 60.365295%, 62.928772%)" fill-opacity="1" d="M 1077.980469 912.261719 C 1090.25 915.789062 1111.289062 909.519531 1112.078125 928.121094 C 1112.730469 943.710938 1094.089844 952.070312 1079.429688 951.738281 C 1064.078125 951.410156 1043.929688 943.46875 1043.660156 927.808594 C 1043.359375 910.789062 1064.191406 914.480469 1077.980469 912.261719 "/>
</svg>
